<svg width="32" height="21" viewBox="0 0 32 21" fill="none" xmlns="http://www.w3.org/2000/svg">
<path d="M31.0245 5.27794C26.7291 8.11578 19.5891 13.6382 17.6232 20.0655L14.5891 20.0534C12.685 13.3896 5.25278 7.66465 1.07202 4.88843L2.62365 2.02006C3.97005 2.9064 5.65679 4.09835 7.42277 5.54105C11.4471 8.83055 14.369 12.1679 16.1499 15.5022C17.9953 12.1823 20.9816 8.86859 25.0701 5.61146C26.6889 4.32257 28.2384 3.23734 29.527 2.39414L31.0245 5.27794Z" fill="#EB5D11"/>
<path d="M31.0431 3.36662C26.7477 6.20447 19.6077 11.7269 17.6418 18.1542L14.6077 18.1421C12.7036 11.4783 5.27134 5.75334 1.09057 2.97711L2.64221 0.108741C3.9886 0.99508 5.67535 2.18704 7.44132 3.62973C11.4657 6.91923 14.3875 10.2565 16.1685 13.5909C18.0139 10.271 21.0001 6.95728 25.0887 3.70015C26.7075 2.41126 28.2569 1.32602 29.5455 0.482826L31.0431 3.36662Z" fill="#EB5D11"/>
</svg>
