<svg width="32" height="32" viewBox="0 0 32 32" fill="none" xmlns="http://www.w3.org/2000/svg">
<path d="M26.1677 19.7812C25.3519 19.6641 24.6925 19.2102 24.0557 18.7711C23.6757 18.5096 23.3171 18.262 22.9278 18.0811C21.8425 17.576 20.7619 17.8282 20.046 18.129C20.0153 18.1416 19.9867 18.1576 19.9561 18.1709C19.9382 18.1842 19.9182 18.1948 19.8962 18.2022C19.8889 18.2048 19.8809 18.2075 19.8736 18.2095C19.4018 18.4284 18.9667 18.7072 18.5115 19.0046C18.2221 19.1943 17.922 19.3899 17.6132 19.5656C15.2723 20.9004 12.9241 20.3401 11.7324 19.2542C10.4229 18.0604 9.91249 15.9524 10.546 14.3508C10.5493 14.3428 10.5539 14.3355 10.5579 14.3282C10.3996 13.7746 10.4867 13.1564 10.7196 12.6467C11.2579 11.4683 12.445 10.8162 13.6727 11.0258C14.4805 11.1635 14.9383 12.0012 14.8431 12.6667C14.762 13.2396 14.2988 13.5616 13.6647 13.4898C13.5443 13.4758 13.4584 13.3673 13.4717 13.2469C13.4857 13.1264 13.5968 13.0406 13.7146 13.0539C14.2283 13.1138 14.3754 12.8417 14.4093 12.6048C14.4752 12.1397 14.1431 11.5501 13.5988 11.4576C12.5701 11.2826 11.5727 11.8329 11.1175 12.8283C10.7709 13.5882 10.8021 14.5697 11.6545 15.0501C12.0864 15.2937 12.4949 15.2431 12.9674 15.1845C13.0452 15.1752 13.1244 15.1653 13.2049 15.1566C13.5449 15.12 13.7705 15.3003 13.9535 15.4447C14.0247 15.5006 14.0919 15.5538 14.1618 15.5944C14.7593 15.9371 15.5172 15.8832 16.1394 15.4534C16.8873 14.937 17.3158 13.8318 17.1368 12.8829C17.0589 12.4684 16.7888 11.7397 15.8625 11.5208C15.7448 11.4929 15.6716 11.3751 15.6995 11.2573C15.7275 11.1395 15.8452 11.0664 15.963 11.0943C16.697 11.2673 17.2313 11.7531 17.4728 12.4477C17.7663 11.4243 17.5014 10.4415 16.7083 9.69362C15.6716 8.71614 14.0546 8.46728 12.8636 9.10341C12.5415 9.27508 12.2487 9.17195 12.0145 9.08877C11.9387 9.06215 11.8661 9.0362 11.7949 9.01957C11.4729 8.94238 11.0963 8.92175 10.6737 8.95835C8.55174 9.14134 6.87226 11.1529 6.55819 12.9867C7.35068 12.8716 8.3621 13.0892 8.73273 13.9016C8.92636 14.3248 8.8931 14.7966 8.64024 15.2291C8.34081 15.7408 7.78453 16.1021 7.22293 16.1494C6.97939 16.17 6.72787 16.1035 6.51693 15.9717C6.49763 16.6744 6.59412 18.3572 7.78919 19.7705C9.03416 21.2424 11.1056 22.0329 13.9449 22.1187C14.066 22.1227 14.1611 22.2232 14.1571 22.3443C14.1538 22.4627 14.056 22.5566 13.9382 22.5566C13.9362 22.5566 13.9335 22.5566 13.9315 22.5566C10.9592 22.4667 8.77798 21.6223 7.44983 20.048C5.77833 18.0671 6.09041 15.6776 6.10438 15.5765C6.10638 15.5625 6.1097 15.5499 6.1137 15.5365C6.01921 15.3469 5.98794 15.1346 6.02786 14.9157C6.04982 14.7966 6.16494 14.7181 6.28271 14.7394C6.40182 14.7613 6.481 14.8751 6.45904 14.9942C6.41779 15.2205 6.51094 15.3808 6.59678 15.4753C6.74317 15.6364 6.9734 15.7282 7.18566 15.7115C7.60287 15.6763 8.03539 15.3935 8.26163 15.0069C8.44062 14.7008 8.46657 14.3728 8.33415 14.0826C8.00478 13.362 6.88889 13.2668 6.23347 13.5157C5.17681 13.917 4.73964 15.5272 4.86407 16.8381C5.06036 18.9042 6.37121 20.7926 8.45925 22.0196C10.7396 23.3591 13.4538 23.6219 15.5418 22.705C16.2511 22.3935 16.9059 21.9457 17.5394 21.5125C18.1003 21.1293 18.6805 20.7327 19.3067 20.422C20.4232 19.8683 21.7061 19.7372 22.8247 20.0633C23.1148 20.1478 23.3956 20.2549 23.6671 20.3581C24.5095 20.6788 25.2374 20.9563 26.0892 20.5803C26.4385 20.4259 26.901 20.0666 27.1538 19.6893C26.855 19.7958 26.513 19.8297 26.1657 19.7798L26.1677 19.7812Z" fill="#E23B3B"/>
<path d="M11.4404 15.4327C11.1803 15.2864 10.9813 15.102 10.8323 14.8958C10.4716 16.2765 10.9474 17.9473 12.028 18.9314C13.1059 19.9136 15.2459 20.4126 17.3965 19.1856C17.6087 19.0645 17.8197 18.9314 18.0266 18.7977C17.4065 18.9687 16.779 19.0931 16.1448 19.0931C15.6185 19.0931 15.0882 19.0093 14.5539 18.7984C13.6083 18.4264 12.8584 17.7736 12.5477 17.0523C12.3534 16.6019 12.3268 16.1374 12.4665 15.6703C12.1364 15.6789 11.7958 15.633 11.4404 15.4327Z" fill="#E23B3B"/>
</svg>
