<svg width="32" height="32" viewBox="0 0 32 32" fill="none" xmlns="http://www.w3.org/2000/svg">
<path d="M5.83232 19.7812C6.64811 19.6641 7.30752 19.2102 7.94432 18.7711C8.32426 18.5096 8.68292 18.262 9.07218 18.0811C10.1575 17.576 11.2381 17.8282 11.954 18.129C11.9847 18.1416 12.0133 18.1576 12.0439 18.1709C12.0618 18.1842 12.0818 18.1948 12.1038 18.2022C12.1111 18.2048 12.1191 18.2075 12.1264 18.2095C12.5982 18.4284 13.0333 18.7072 13.4885 19.0046C13.7779 19.1943 14.078 19.3899 14.3868 19.5656C16.7277 20.9004 19.0759 20.3401 20.2676 19.2542C21.5771 18.0604 22.0875 15.9524 21.454 14.3508C21.4507 14.3428 21.4461 14.3355 21.4421 14.3282C21.6004 13.7746 21.5133 13.1564 21.2804 12.6467C20.7421 11.4683 19.555 10.8162 18.3273 11.0258C17.5195 11.1635 17.0617 12.0012 17.1569 12.6667C17.238 13.2396 17.7012 13.5616 18.3353 13.4898C18.4557 13.4758 18.5416 13.3673 18.5283 13.2469C18.5143 13.1264 18.4032 13.0406 18.2854 13.0539C17.7717 13.1138 17.6246 12.8417 17.5907 12.6048C17.5248 12.1397 17.8569 11.5501 18.4012 11.4576C19.4299 11.2826 20.4273 11.8329 20.8825 12.8283C21.2291 13.5882 21.1979 14.5697 20.3455 15.0501C19.9136 15.2937 19.5051 15.2431 19.0326 15.1845C18.9548 15.1752 18.8756 15.1653 18.7951 15.1566C18.4551 15.12 18.2295 15.3003 18.0465 15.4447C17.9753 15.5006 17.9081 15.5538 17.8382 15.5944C17.2407 15.9371 16.4828 15.8832 15.8606 15.4534C15.1127 14.937 14.6842 13.8318 14.8632 12.8829C14.9411 12.4684 15.2112 11.7397 16.1375 11.5208C16.2552 11.4929 16.3284 11.3751 16.3005 11.2573C16.2725 11.1395 16.1548 11.0664 16.037 11.0943C15.303 11.2673 14.7687 11.7531 14.5272 12.4477C14.2337 11.4243 14.4986 10.4415 15.2917 9.69362C16.3284 8.71614 17.9454 8.46728 19.1364 9.10341C19.4585 9.27508 19.7513 9.17195 19.9855 9.08877C20.0613 9.06215 20.1339 9.0362 20.2051 9.01957C20.5271 8.94238 20.9037 8.92175 21.3263 8.95835C23.4483 9.14134 25.1277 11.1529 25.4418 12.9867C24.6493 12.8716 23.6379 13.0892 23.2673 13.9016C23.0736 14.3248 23.1069 14.7966 23.3598 15.2291C23.6592 15.7408 24.2155 16.1021 24.7771 16.1494C25.0206 16.17 25.2721 16.1035 25.4831 15.9717C25.5024 16.6744 25.4059 18.3572 24.2108 19.7705C22.9658 21.2424 20.8944 22.0329 18.0551 22.1187C17.934 22.1227 17.8389 22.2232 17.8429 22.3443C17.8462 22.4627 17.944 22.5566 18.0618 22.5566C18.0638 22.5566 18.0665 22.5566 18.0685 22.5566C21.0408 22.4667 23.222 21.6223 24.5502 20.048C26.2217 18.0671 25.9096 15.6776 25.8956 15.5765C25.8936 15.5625 25.8903 15.5499 25.8863 15.5365C25.9808 15.3469 26.0121 15.1346 25.9721 14.9157C25.9502 14.7966 25.8351 14.7181 25.7173 14.7394C25.5982 14.7613 25.519 14.8751 25.541 14.9942C25.5822 15.2205 25.4891 15.3808 25.4032 15.4753C25.2568 15.6364 25.0266 15.7282 24.8143 15.7115C24.3971 15.6763 23.9646 15.3935 23.7384 15.0069C23.5594 14.7008 23.5334 14.3728 23.6658 14.0826C23.9952 13.362 25.1111 13.2668 25.7665 13.5157C26.8232 13.917 27.2604 15.5272 27.1359 16.8381C26.9396 18.9042 25.6288 20.7926 23.5408 22.0196C21.2604 23.3591 18.5462 23.6219 16.4582 22.705C15.7489 22.3935 15.0941 21.9457 14.4606 21.5125C13.8997 21.1293 13.3195 20.7327 12.6933 20.422C11.5768 19.8683 10.2939 19.7372 9.17532 20.0633C8.8852 20.1478 8.6044 20.2549 8.33291 20.3581C7.49051 20.6788 6.76256 20.9563 5.91084 20.5803C5.5615 20.4259 5.09905 20.0666 4.84619 19.6893C5.14496 19.7958 5.48698 19.8297 5.83432 19.7798L5.83232 19.7812Z" fill="#E23B3B"/>
<path d="M20.5596 15.4327C20.8197 15.2864 21.0187 15.102 21.1677 14.8958C21.5284 16.2765 21.0526 17.9473 19.972 18.9314C18.8941 19.9136 16.7541 20.4126 14.6035 19.1856C14.3913 19.0645 14.1803 18.9314 13.9734 18.7977C14.5935 18.9687 15.221 19.0931 15.8552 19.0931C16.3815 19.0931 16.9118 19.0093 17.4461 18.7984C18.3917 18.4264 19.1416 17.7736 19.4523 17.0523C19.6466 16.6019 19.6732 16.1374 19.5335 15.6703C19.8636 15.6789 20.2042 15.633 20.5596 15.4327Z" fill="#E23B3B"/>
</svg>
