<svg width="41" height="26" viewBox="0 0 41 26" fill="none" xmlns="http://www.w3.org/2000/svg">
<path d="M41 3.15862C39.5181 3.66212 37.9297 4.00018 36.2598 4.15363C37.9641 3.372 39.2737 2.13483 39.8878 0.662692C38.2962 1.38438 36.5261 1.90946 34.6494 2.19237C33.1455 0.964792 31.0025 0.199951 28.6308 0.199951C24.0754 0.199951 20.3815 3.02435 20.3815 6.51049C20.3815 7.0044 20.4567 7.48632 20.5977 7.94906C13.7426 7.68533 7.66767 5.17262 3.59785 1.35321C2.88665 2.28828 2.48249 3.372 2.48249 4.52766C2.48249 6.71669 3.93622 8.64917 6.15128 9.78324C4.7978 9.74968 3.52579 9.46436 2.41356 8.99203C2.41356 9.0184 2.41356 9.04478 2.41356 9.07115C2.41356 12.1305 5.25836 14.6792 9.0274 15.2618C8.33814 15.4057 7.60814 15.4824 6.85621 15.4824C6.32359 15.4824 5.80664 15.444 5.30222 15.3673C6.35492 17.8728 9.40024 19.7022 13.0064 19.7526C10.1866 21.4453 6.63063 22.4523 2.76446 22.4523C2.09713 22.4523 1.44232 22.4235 0.800049 22.3636C4.4469 24.157 8.78303 25.2 13.4419 25.2C28.612 25.2 36.9083 15.5831 36.9083 7.24416C36.9083 6.97083 36.8989 6.69511 36.8864 6.42657C38.4968 5.53706 39.8941 4.42456 41 3.15862Z" fill="white"/>
</svg>
