<svg width="43" height="87" viewBox="0 0 43 87" fill="none" xmlns="http://www.w3.org/2000/svg">
<path d="M10.9936 0.0589942C16.937 12.3602 28.5054 32.7946 41.9832 38.3415L41.9512 47.0632C27.9689 52.6445 15.9439 74.1011 10.1113 86.1636L4.09786 81.7499C5.96001 77.8653 8.46397 72.9975 11.4941 67.8978C18.403 56.2766 25.4098 47.8237 32.408 42.6504C25.448 37.3995 18.5036 28.8692 11.6802 17.1694C8.98017 12.537 6.70712 8.10077 4.94122 4.41028L10.9936 0.0589942Z" fill="#EB5D11"/>
<path d="M6.98484 0.0367774C12.9282 12.3379 24.4966 32.7724 37.9744 38.3192L37.9424 47.041C23.9601 52.6222 11.9351 74.0788 6.10247 86.1414L0.0890748 81.7277C1.95122 77.8431 4.45518 72.9753 7.48527 67.8756C14.3942 56.2543 21.401 47.8015 28.3992 42.6282C21.4393 37.3773 14.4948 28.847 7.67146 17.1472C4.97138 12.5148 2.69834 8.07855 0.932433 4.38806L6.98484 0.0367774Z" fill="#0C0C0C"/>
</svg>
