<svg width="44" height="87" viewBox="0 0 44 87" fill="none" xmlns="http://www.w3.org/2000/svg">
<path d="M31.3448 86.6148C25.4908 74.249 14.0708 53.6886 0.633716 47.9943L0.72888 39.2732C14.751 33.8454 26.9309 12.5214 32.8507 0.523252L38.8318 5.00271C36.9416 8.86671 34.4025 13.7069 31.3356 18.7732C24.3428 30.3183 17.2751 38.694 10.2397 43.7904C17.1614 49.1173 24.0438 57.7234 30.7821 69.4975C33.4486 74.1593 35.6894 78.6203 37.4285 82.33L31.3448 86.6148Z" fill="#EB5D11"/>
<path d="M35.3534 86.6809C29.4993 74.3152 18.0793 53.7548 4.64226 48.0604L4.73742 39.3394C18.7596 33.9116 30.9395 12.5876 36.8592 0.589414L42.8404 5.06887C40.9502 8.93287 38.4111 13.7731 35.3442 18.8393C28.3514 30.3844 21.2837 38.7602 14.2483 43.8566C21.1699 49.1835 28.0523 57.7896 34.7907 69.5637C37.4571 74.2255 39.6979 78.6865 41.437 82.3962L35.3534 86.6809Z" fill="#0C0C0C"/>
</svg>
