<svg width="64" height="65" viewBox="0 0 64 65" fill="none" xmlns="http://www.w3.org/2000/svg">
<path d="M12.6452 9.74193C7.94731 13.7088 4.5818 19.0234 3.00424 24.9662C1.42668 30.909 1.71325 37.1931 3.82518 42.9676C5.9371 48.7422 9.77236 53.7284 14.8118 57.2512C19.8512 60.774 25.8514 62.6633 32 62.6633C38.1486 62.6633 44.1488 60.774 49.1882 57.2512C54.2276 53.7284 58.0629 48.7422 60.1748 42.9676C62.2867 37.1931 62.5733 30.909 60.9958 24.9662C59.4182 19.0234 56.0527 13.7088 51.3548 9.74193" fill="white"/>
<path d="M12.6452 9.74193C7.94731 13.7088 4.5818 19.0234 3.00424 24.9662C1.42668 30.909 1.71325 37.1931 3.82518 42.9676C5.9371 48.7422 9.77236 53.7284 14.8118 57.2512C19.8512 60.774 25.8514 62.6633 32 62.6633C38.1486 62.6633 44.1488 60.774 49.1882 57.2512C54.2276 53.7284 58.0629 48.7422 60.1748 42.9676C62.2867 37.1931 62.5733 30.909 60.9958 24.9662C59.4182 19.0234 56.0527 13.7088 51.3548 9.74193" stroke="#EB5D11" stroke-width="4" stroke-linecap="round" stroke-linejoin="round"/>
<path d="M32 2V32.9677" stroke="#EB5D11" stroke-width="4" stroke-linecap="round" stroke-linejoin="round"/>
</svg>
