<svg width="75" height="60" viewBox="0 0 75 60" fill="none" xmlns="http://www.w3.org/2000/svg">
<path d="M72.1106 57.0488V53.867C72.1106 41.5661 62.1387 31.5943 49.8378 31.5943C37.5369 31.5943 27.5651 41.5661 27.5651 53.867V57.0488" fill="white"/>
<path d="M72.1106 57.0488V53.867C72.1106 41.5661 62.1387 31.5943 49.8378 31.5943C37.5369 31.5943 27.5651 41.5661 27.5651 53.867V57.0488" stroke="#EB5D11" stroke-width="4" stroke-linecap="round"/>
<path d="M33.9287 37.9579C33.9287 29.1716 26.8059 22.0488 18.0197 22.0488C9.23338 22.0488 2.11056 29.1716 2.11056 37.9579V39.5488" fill="white"/>
<path d="M33.9287 37.9579C33.9287 29.1716 26.8059 22.0488 18.0197 22.0488C9.23338 22.0488 2.11056 29.1716 2.11056 37.9579V39.5488" stroke="#EB5D11" stroke-width="4" stroke-linecap="round"/>
<path d="M49.8379 31.5943C42.8089 31.5943 37.1106 25.8959 37.1106 18.867C37.1106 11.8379 42.8089 6.13971 49.8379 6.13971C56.867 6.13971 62.5652 11.8379 62.5652 18.867C62.5652 25.8959 56.867 31.5943 49.8379 31.5943Z" fill="white" stroke="#EB5D11" stroke-width="4" stroke-linecap="round" stroke-linejoin="round"/>
<path d="M18.0196 22.0488C12.7477 22.0488 8.47418 17.7751 8.47418 12.5033C8.47418 7.23154 12.7477 2.95789 18.0196 2.95789C23.2916 2.95789 27.5651 7.23154 27.5651 12.5033C27.5651 17.7751 23.2916 22.0488 18.0196 22.0488Z" fill="white" stroke="#EB5D11" stroke-width="4" stroke-linecap="round" stroke-linejoin="round"/>
</svg>
