<svg width="20" height="19" viewBox="0 0 20 19" fill="none" xmlns="http://www.w3.org/2000/svg">
<path d="M19.7246 16.9894L14.2708 12.5603C16.5184 9.4863 16.287 5.09021 13.4775 2.31373C11.9901 0.826332 10.0069 0 7.89147 0C5.77606 0 3.79287 0.826332 2.30547 2.31373C-0.768489 5.38769 -0.768489 10.4118 2.30547 13.4857C3.79287 14.9731 5.77606 15.7995 7.89147 15.7995C9.90773 15.7995 11.7918 15.0393 13.2792 13.6841L18.7991 18.1463C18.9313 18.2454 19.0965 18.3115 19.2618 18.3115C19.4932 18.3115 19.6915 18.2124 19.8237 18.0471C20.0881 17.7166 20.0551 17.2538 19.7246 16.9894ZM7.89147 14.3121C6.1727 14.3121 4.58615 13.651 3.36317 12.428C0.851122 9.91599 0.851122 5.85043 3.36317 3.37144C4.58615 2.14846 6.1727 1.4874 7.89147 1.4874C9.61025 1.4874 11.1968 2.14846 12.4198 3.37144C14.9318 5.88349 14.9318 9.94904 12.4198 12.428C11.2299 13.651 9.61025 14.3121 7.89147 14.3121Z" fill="black"/>
</svg>
