<svg width="40" height="43" viewBox="0 0 40 43" fill="none" xmlns="http://www.w3.org/2000/svg">
<path d="M0 0H40V42.1918H0V0Z" fill="white"/>
<path d="M20 36.9178C28.2843 36.9178 35 29.8341 35 21.0959C35 12.3577 28.2843 5.27399 20 5.27399C11.7157 5.27399 5 12.3577 5 21.0959C5 29.8341 11.7157 36.9178 20 36.9178Z" fill="white" stroke="#EB5D11" stroke-width="2" stroke-linecap="round" stroke-linejoin="round"/>
<path d="M20 22.8539C22.7614 22.8539 25 20.4927 25 17.5799C25 14.6672 22.7614 12.306 20 12.306C17.2386 12.306 15 14.6672 15 17.5799C15 20.4927 17.2386 22.8539 20 22.8539Z" fill="white" stroke="#EB5D11" stroke-width="2" stroke-linecap="round" stroke-linejoin="round"/>
<path d="M10.28 33.1364C10.6925 31.6882 11.5366 30.4188 12.6871 29.5166C13.8375 28.6144 15.2331 28.1274 16.6667 28.1278H23.3333C24.7688 28.1273 26.166 28.6155 27.3173 29.5198C28.4686 30.4241 29.3124 31.6962 29.7233 33.1469" fill="white"/>
<path d="M10.28 33.1364C10.6925 31.6882 11.5366 30.4188 12.6871 29.5166C13.8375 28.6144 15.2331 28.1274 16.6667 28.1278H23.3333C24.7688 28.1273 26.166 28.6155 27.3173 29.5198C28.4686 30.4241 29.3124 31.6962 29.7233 33.1469" stroke="#EB5D11" stroke-width="2" stroke-linecap="round" stroke-linejoin="round"/>
</svg>
