<svg width="42" height="43" viewBox="0 0 42 43" fill="none" xmlns="http://www.w3.org/2000/svg">
<path d="M38.9409 21.4592V8.66919C38.9409 8.34362 38.7911 8.03139 38.5243 7.80117L31.058 1.35955C30.7912 1.12932 30.4294 1 30.0521 1H2.42278C1.637 1 1 1.54959 1 2.22755V40.6908C1 41.3688 1.637 41.9184 2.42278 41.9184H17.5992" stroke="#EB5D11" stroke-width="2" stroke-linecap="round" stroke-linejoin="round"/>
<path d="M10.4852 17.3673H29.4557M10.4852 9.18367H19.9705M10.4852 25.551H17.5992" stroke="#EB5D11" stroke-width="2" stroke-linecap="round" stroke-linejoin="round"/>
<path d="M34.0894 31.5648L36.4608 29.5189C37.4991 28.623 39.1828 28.623 40.2212 29.5189C41.2596 30.4148 41.2596 31.8674 40.2212 32.7633L37.8499 34.8092M34.0894 31.5648L26.9966 37.6843C26.6412 37.991 26.4078 38.3873 26.3305 38.8157L25.755 42L29.4455 41.5037C29.9423 41.4368 30.4013 41.2354 30.7568 40.9288L37.8499 34.8092M34.0894 31.5648L37.8499 34.8092" stroke="#EB5D11" stroke-width="2" stroke-linecap="round" stroke-linejoin="round"/>
<path d="M29.4557 1V7.95612C29.4557 8.63408 30.0926 9.18367 30.8785 9.18367H38.9409" stroke="#EB5D11" stroke-width="2" stroke-linecap="round" stroke-linejoin="round"/>
</svg>
