<svg width="116" height="53" viewBox="0 0 116 53" fill="none" xmlns="http://www.w3.org/2000/svg">
<path d="M31.3448 51.3176C25.4908 43.9911 14.0708 31.8094 0.633717 28.4356L0.728882 23.2686C14.751 20.0527 26.9309 7.41861 32.8507 0.309914L38.8318 2.96391C36.9416 5.25326 34.4025 8.12099 31.3356 11.1226C24.3428 17.9629 17.2751 22.9254 10.2397 25.9449C17.1614 29.101 24.0438 34.2 30.7821 41.1759C33.4486 43.9379 35.6894 46.581 37.4285 48.7789L31.3448 51.3176Z" fill="#EB5D11"/>
<path d="M35.3534 51.3569C29.4993 44.0304 18.0793 31.8487 4.64226 28.4749L4.73742 23.3079C18.7596 20.092 30.9395 7.45791 36.8592 0.349221L42.8404 3.00322C40.9502 5.29257 38.4111 8.1603 35.3442 11.162C28.3514 18.0022 21.2837 22.9647 14.2483 25.9842C21.1699 29.1403 28.0523 34.2393 34.7907 41.2152C37.4571 43.9772 39.6979 46.6203 41.437 48.8182L35.3534 51.3569Z" fill="#0C0C0C"/>
<path d="M83.9936 1.22C89.937 8.50822 101.505 20.6152 114.983 23.9017L114.951 29.0691C100.969 32.3759 88.9439 45.0886 83.1113 52.2354L77.0979 49.6204C78.96 47.3188 81.464 44.4347 84.4941 41.4133C91.403 34.5279 98.4098 29.5197 105.408 26.4546C98.448 23.3436 91.5036 18.2895 84.6802 11.3576C81.9802 8.61301 79.7071 5.9846 77.9412 3.79806L83.9936 1.22Z" fill="#EB5D11"/>
<path d="M79.9848 1.20682C85.9282 8.49503 97.4966 20.6021 110.974 23.8885L110.942 29.056C96.9601 32.3627 84.9351 45.0754 79.1025 52.2222L73.0891 49.6072C74.9512 47.3056 77.4552 44.4215 80.4853 41.4001C87.3942 34.5147 94.401 29.5065 101.399 26.4414C94.4393 23.3304 87.4948 18.2763 80.6715 11.3444C77.9714 8.59983 75.6983 5.97142 73.9324 3.78488L79.9848 1.20682Z" fill="#0C0C0C"/>
</svg>
