<svg width="42" height="43" viewBox="0 0 42 43" fill="none" xmlns="http://www.w3.org/2000/svg">
<path d="M22.0526 39.8421H2.26316C1.56554 39.8421 1 39.2625 1 38.5474V2.29474C1 1.57968 1.56554 1 2.26316 1H37.6316C38.3293 1 38.8947 1.57968 38.8947 2.29474V22.5789" stroke="#EB5D11" stroke-width="2" stroke-linecap="round" stroke-linejoin="round"/>
<path d="M1 29.0526L15.7368 22.5789L27.3158 27.9737" stroke="#EB5D11" stroke-width="2" stroke-linecap="round" stroke-linejoin="round"/>
<path d="M28.3684 16.1053C26.043 16.1053 24.1579 14.173 24.1579 11.7895C24.1579 9.40593 26.043 7.47369 28.3684 7.47369C30.6939 7.47369 32.579 9.40593 32.579 11.7895C32.579 14.173 30.6939 16.1053 28.3684 16.1053Z" stroke="#EB5D11" stroke-width="2" stroke-linecap="round" stroke-linejoin="round"/>
<path d="M28.3684 35.5263H34.6842M34.6842 35.5263H41M34.6842 35.5263V29.0526M34.6842 35.5263V42" stroke="#EB5D11" stroke-width="2" stroke-linecap="round" stroke-linejoin="round"/>
</svg>
