<svg width="26" height="26" viewBox="0 0 26 26" fill="none" xmlns="http://www.w3.org/2000/svg">
<path d="M7.62288 0.333374C3.60309 0.333374 0.333252 3.60624 0.333252 7.62707V18.0437C0.333252 22.0635 3.60612 25.3334 7.62695 25.3334H18.0436C22.0634 25.3334 25.3333 22.0605 25.3333 18.0397V7.62301C25.3333 3.60321 22.0604 0.333374 18.0396 0.333374H7.62288ZM20.1249 4.50004C20.6999 4.50004 21.1666 4.96671 21.1666 5.54171C21.1666 6.11671 20.6999 6.58337 20.1249 6.58337C19.5499 6.58337 19.0833 6.11671 19.0833 5.54171C19.0833 4.96671 19.5499 4.50004 20.1249 4.50004ZM12.8333 6.58337C16.2801 6.58337 19.0833 9.3865 19.0833 12.8334C19.0833 16.2802 16.2801 19.0834 12.8333 19.0834C9.38638 19.0834 6.58325 16.2802 6.58325 12.8334C6.58325 9.3865 9.38638 6.58337 12.8333 6.58337ZM12.8333 8.66671C11.7282 8.66671 10.6684 9.10569 9.88697 9.8871C9.10557 10.6685 8.66658 11.7283 8.66658 12.8334C8.66658 13.9384 9.10557 14.9982 9.88697 15.7797C10.6684 16.5611 11.7282 17 12.8333 17C13.9383 17 14.9981 16.5611 15.7795 15.7797C16.5609 14.9982 16.9999 13.9384 16.9999 12.8334C16.9999 11.7283 16.5609 10.6685 15.7795 9.8871C14.9981 9.10569 13.9383 8.66671 12.8333 8.66671Z" fill="white"/>
</svg>
