<svg width="72" height="69" viewBox="0 0 72 69" fill="none" xmlns="http://www.w3.org/2000/svg">
<rect width="70" height="66.0163" transform="translate(1 1)" fill="white"/>
<path fill-rule="evenodd" clip-rule="evenodd" d="M53.7727 1.46696C53.9783 0.85893 54.866 0.839882 55.0993 1.43852L66.0427 29.504L70.9553 42.1046C71.066 42.3887 70.9659 42.7088 70.7107 42.8875L36.4136 66.8868C36.1672 67.0594 35.8327 67.0594 35.5863 66.8868L1.28918 42.8875C1.03394 42.7088 0.933959 42.3887 1.04473 42.1046L5.95631 29.5057L6.54277 27.9862L16.8911 1.43852C17.1244 0.839916 18.0121 0.858795 18.2177 1.46672L26.8963 27.131C26.9904 27.4093 27.2603 27.5978 27.5648 27.5978H44.4349C44.7392 27.5978 45.0095 27.4093 45.1033 27.1307L53.7727 1.46696Z" fill="#EB5D11" stroke="#EB5D11" stroke-width="2"/>
<path d="M29.5484 34.5806C27.9824 35.9029 26.8606 37.6744 26.3347 39.6554C25.8089 41.6363 25.9044 43.731 26.6084 45.6559C27.3124 47.5807 28.5908 49.2428 30.2706 50.4171C31.9504 51.5913 33.9505 52.2211 36 52.2211C38.0495 52.2211 40.0496 51.5913 41.7294 50.4171C43.4092 49.2428 44.6876 47.5807 45.3916 45.6559C46.0956 43.731 46.1911 41.6363 45.6653 39.6554C45.1394 37.6744 44.0176 35.9029 42.4516 34.5806" stroke="white" stroke-linecap="round" stroke-linejoin="round"/>
<path d="M36 32V42.3226" stroke="white" stroke-linecap="round" stroke-linejoin="round"/>
</svg>
