<svg width="72" height="69" viewBox="0 0 72 69" fill="none" xmlns="http://www.w3.org/2000/svg">
<path fill-rule="evenodd" clip-rule="evenodd" d="M53.7727 1.46696C53.9783 0.85893 54.866 0.839882 55.0993 1.43852L66.0427 29.504L70.9553 42.1046C71.066 42.3887 70.9659 42.7088 70.7107 42.8875L36.4136 66.8868C36.1672 67.0594 35.8327 67.0594 35.5863 66.8868L1.28918 42.8875C1.03394 42.7088 0.933959 42.3887 1.04473 42.1046L5.95631 29.5057L6.54277 27.9862L16.8911 1.43852C17.1244 0.839916 18.0121 0.858795 18.2177 1.46672L26.8963 27.131C26.9904 27.4093 27.2603 27.5978 27.5648 27.5978H44.4349C44.7392 27.5978 45.0095 27.4093 45.1033 27.1307L53.7727 1.46696Z" fill="#0C0C0C" stroke="#0C0C0C" stroke-width="2"/>
</svg>
