<svg width="25" height="25" viewBox="0 0 25 25" fill="none" xmlns="http://www.w3.org/2000/svg">
<path d="M2.77778 0C1.24583 0 0 1.24583 0 2.77778V22.2222C0 23.7542 1.24583 25 2.77778 25H11.9737H15.8529H22.2222C23.7542 25 25 23.7542 25 22.2222V2.77778C25 1.24583 23.7542 0 22.2222 0H2.77778ZM2.77778 2.77778H22.2222L22.2249 22.2222H15.8529V16.7155H19.1379L19.6262 12.9313H15.8746V10.5197C15.8746 9.4253 16.1796 8.68598 17.749 8.68598H19.732V5.3087C18.7667 5.21009 17.7975 5.16215 16.8267 5.16493C13.9462 5.16493 11.9737 6.92305 11.9737 10.1508V12.9367H8.71853V16.7209H11.9737V22.2222H2.77778V2.77778Z" fill="white"/>
</svg>
