<svg width="33" height="39" viewBox="0 0 33 39" fill="none" xmlns="http://www.w3.org/2000/svg">
<path d="M29 34.7531L22.672 26.9689M22.672 26.9689C23.6877 25.7195 24.4934 24.2362 25.043 22.6038C25.5927 20.9714 25.8756 19.2218 25.8756 17.4549C25.8756 15.6879 25.5927 13.9383 25.043 12.3059C24.4934 10.6735 23.6877 9.19024 22.672 7.94084C21.6563 6.69144 20.4506 5.70036 19.1235 5.02419C17.7965 4.34802 16.3742 4 14.9378 4C13.5014 4 12.0791 4.34802 10.7521 5.02419C9.42506 5.70036 8.21928 6.69144 7.20361 7.94084C5.15237 10.4641 4 13.8864 4 17.4549C4 21.0233 5.15237 24.4456 7.20361 26.9689C9.25485 29.4922 12.0369 30.9097 14.9378 30.9097C17.8387 30.9097 20.6208 29.4922 22.672 26.9689Z" stroke="#EB5D11" stroke-width="6.62985" stroke-linecap="round" stroke-linejoin="round"/>
</svg>
