<svg width="76" height="76" viewBox="0 0 76 76" fill="none" xmlns="http://www.w3.org/2000/svg">
<path d="M45.2048 13.9133L54.8824 4.2357C55.6738 3.44448 56.7471 3 57.8663 3C58.9854 3 60.0587 3.44448 60.8501 4.2357L71.7643 15.1499C72.5555 15.9413 73 17.0146 73 18.1337C73 19.2529 72.5555 20.3262 71.7643 21.1176L62.0867 30.7952M45.2048 13.9133L4.2366 54.8815C3.44505 55.6728 3.00024 56.7461 3 57.8654V68.7795C3 69.8989 3.44466 70.9724 4.23615 71.7638C5.02764 72.5553 6.10114 73 7.22048 73H18.1346C19.2539 72.9998 20.3272 72.5549 21.1185 71.7634L62.0867 30.7952M45.2048 13.9133L62.0867 30.7952" stroke="#EB5D11" stroke-width="5" stroke-linecap="round" stroke-linejoin="round"/>
</svg>
