<svg width="74" height="66" viewBox="0 0 74 66" fill="none" xmlns="http://www.w3.org/2000/svg">
<path d="M11.2105 22.9339V59.776C11.2105 60.7531 11.5987 61.6902 12.2896 62.3812C12.9805 63.0721 13.9176 63.4602 14.8947 63.4602H29.6316M11.2105 22.9339L34.6053 2.88445C35.2726 2.31366 36.1219 2 37 2C37.8781 2 38.7274 2.31366 39.3947 2.88445L62.7895 22.9339M11.2105 22.9339L2 30.3023M29.6316 63.4602V45.0392C29.6316 44.0621 30.0197 43.125 30.7107 42.4341C31.4016 41.7431 32.3387 41.355 33.3158 41.355H40.6842C41.6613 41.355 42.5984 41.7431 43.2893 42.4341C43.9803 43.125 44.3684 44.0621 44.3684 45.0392V63.4602M29.6316 63.4602H44.3684M62.7895 22.9339V59.776C62.7895 60.7531 62.4013 61.6902 61.7104 62.3812C61.0195 63.0721 60.0824 63.4602 59.1053 63.4602H44.3684M62.7895 22.9339L72 30.3023" stroke="#EB5D11" stroke-width="4" stroke-linecap="round" stroke-linejoin="round"/>
</svg>
