<?xml version="1.0" encoding="UTF-8"?>
<svg id="Graphic_elements" data-name="Graphic elements" xmlns="http://www.w3.org/2000/svg" viewBox="0 0 480.91 480.91">
  <defs>
    <style>
      .cls-1 {
        fill: #e23b3b;
      }
    </style>
  </defs>
  <path class="cls-1" d="M87.65,297.28c12.26-1.76,22.17-8.58,31.74-15.18,5.71-3.93,11.1-7.65,16.95-10.37,16.31-7.59,32.55-3.8,43.31,.72,.46,.19,.89,.43,1.35,.63,.27,.2,.57,.36,.9,.47,.11,.04,.23,.08,.34,.11,7.09,3.29,13.63,7.48,20.47,11.95,4.35,2.85,8.86,5.79,13.5,8.43,35.18,20.06,70.47,11.64,88.38-4.68,19.68-17.94,27.35-49.62,17.83-73.69-.05-.12-.12-.23-.18-.34,2.38-8.32,1.07-17.61-2.43-25.27-8.09-17.71-25.93-27.51-44.38-24.36-12.14,2.07-19.02,14.66-17.59,24.66,1.22,8.61,8.18,13.45,17.71,12.37,1.81-.21,3.1-1.84,2.9-3.65-.21-1.81-1.88-3.1-3.65-2.9-7.72,.9-9.93-3.19-10.44-6.75-.99-6.99,4-15.85,12.18-17.24,15.46-2.63,30.45,5.64,37.29,20.6,5.21,11.42,4.74,26.17-8.07,33.39-6.49,3.66-12.63,2.9-19.73,2.02-1.17-.14-2.36-.29-3.57-.42-5.11-.55-8.5,2.16-11.25,4.33-1.07,.84-2.08,1.64-3.13,2.25-8.98,5.15-20.37,4.34-29.72-2.12-11.24-7.76-17.68-24.37-14.99-38.63,1.17-6.23,5.23-17.18,19.15-20.47,1.77-.42,2.87-2.19,2.45-3.96-.42-1.77-2.19-2.87-3.96-2.45-11.03,2.6-19.06,9.9-22.69,20.34-4.41-15.38-.43-30.15,11.49-41.39,15.58-14.69,39.88-18.43,57.78-8.87,4.84,2.58,9.24,1.03,12.76-.22,1.14-.4,2.23-.79,3.3-1.04,4.84-1.16,10.5-1.47,16.85-.92,31.89,2.75,57.13,32.98,61.85,60.54-11.91-1.73-27.11,1.54-32.68,13.75-2.91,6.36-2.41,13.45,1.39,19.95,4.5,7.69,12.86,13.12,21.3,13.83,3.66,.31,7.44-.69,10.61-2.67,.29,10.56-1.16,35.85-19.12,57.09-18.71,22.12-49.84,34-92.51,35.29-1.82,.06-3.25,1.57-3.19,3.39,.05,1.78,1.52,3.19,3.29,3.19,.03,0,.07,0,.1,0,44.67-1.35,77.45-14.04,97.41-37.7,25.12-29.77,20.43-65.68,20.22-67.2-.03-.21-.08-.4-.14-.6,1.42-2.85,1.89-6.04,1.29-9.33-.33-1.79-2.06-2.97-3.83-2.65-1.79,.33-2.98,2.04-2.65,3.83,.62,3.4-.78,5.81-2.07,7.23-2.2,2.42-5.66,3.8-8.85,3.55-6.27-.53-12.77-4.78-16.17-10.59-2.69-4.6-3.08-9.53-1.09-13.89,4.95-10.83,21.72-12.26,31.57-8.52,15.88,6.03,22.45,30.23,20.58,49.93-2.95,31.05-22.65,59.43-54.03,77.87-34.27,20.13-75.06,24.08-106.44,10.3-10.66-4.68-20.5-11.41-30.02-17.92-8.43-5.76-17.15-11.72-26.56-16.39-16.78-8.32-36.06-10.29-52.87-5.39-4.36,1.27-8.58,2.88-12.66,4.43-12.66,4.82-23.6,8.99-36.4,3.34-5.25-2.32-12.2-7.72-16-13.39,4.49,1.6,9.63,2.11,14.85,1.36Z"/>
  <path class="cls-1" d="M308.98,231.93c3.91-2.2,6.9-4.97,9.14-8.07,5.42,20.75-1.73,45.86-17.97,60.65-16.2,14.76-48.36,22.26-80.68,3.82-3.19-1.82-6.36-3.82-9.47-5.83,9.32,2.57,18.75,4.44,28.28,4.44,7.91,0,15.88-1.26,23.91-4.43,14.21-5.59,25.48-15.4,30.15-26.24,2.92-6.77,3.32-13.75,1.22-20.77,4.96,.13,10.08-.56,15.42-3.57Z"/>
</svg>