<?xml version="1.0" encoding="UTF-8"?>
<svg id="Graphic_elements" data-name="Graphic elements" xmlns="http://www.w3.org/2000/svg" viewBox="0 0 480.91 480.91">
  <defs>
    <style>
      .cls-1 {
        fill: #e23b3b;
      }
    </style>
  </defs>
  <path class="cls-1" d="M510.96,295.92c-5.93-2.47-9.19-6.35-11.27-9.42-1.42-2.1-2.37-4.35-3.29-6.53-1.71-4.05-3.18-7.55-7.25-9.19-7.52-3.02-17.26-.32-23.71,1.47-10.4,2.88-18.87,1.54-24.16-3.75-.8,1.01-1.63,1.98-2.46,2.95-3.17,3.69-6.16,7.18-6.64,11.78-.07,.69,.14,1.39,.49,1.63,1.02,.7,1.29,2.09,.59,3.12-.43,.64-1.14,.98-1.86,.98-.44,0-.87-.13-1.26-.39-1.75-1.19-2.68-3.41-2.43-5.81,.63-6,4.23-10.19,7.7-14.24,2.62-3.05,5.1-5.93,6.2-9.44,1.58-5,.28-10.63-3.56-15.43-7.31-9.15-22.59-14.51-33.69-7.92-2.43,1.44-5.76,4.05-7.49,6.8-3.86,8.36-10.75,12.96-19.98,13.3-.79,.03-1.68-.07-2.53-.16-.89-.1-2.53-.28-3-.04,.01,.02-.02,.17-.02,.46,.02,1.58,.14,3.17,.26,4.71,.39,5.22,.8,10.61-2.33,15.99-8.38,14.41-26.27,20.15-39.05,20.68-.62,.03-1.24,.04-1.87,.04-15.6,0-34.89-7.9-43.05-23.62-.57-1.1-.14-2.45,.96-3.02,1.1-.57,2.45-.14,3.02,.96,7.63,14.69,26.27,21.76,40.75,21.17,11.65-.49,27.9-5.61,35.36-18.45,2.43-4.17,2.11-8.45,1.73-13.4-.12-1.61-.25-3.27-.27-4.98-.03-1.64,.47-2.93,1.48-3.85,1.78-1.62,4.42-1.33,6.53-1.1,.72,.08,1.4,.15,1.87,.14,7.31-.27,12.6-3.71,15.78-10.15,.05-.16,.11-.31,.19-.46,.08-.14,.17-.28,.25-.41,.01-.03,.03-.06,.05-.09,5.72-13.02,1.62-32.59-5.87-41.38-6.9-8.1-21.45-14.27-32.1-10.55-3.99,1.39-7.23-1.29-9.84-3.44-.77-.64-1.5-1.24-2.18-1.69-4.89-3.23-12.51-4.16-19.41-2.37-5.21,1.35-12.37,4.81-16.97,13.57,4.5,8.3,3.78,18.63,1.36,26.25,.03,.2,.05,.4,.03,.61-.96,9.35,6.93,20.15,16.89,23.13,9.98,2.98,23.85-.56,27.81-10.4,1.52-3.78,1.45-7.77-.2-11.56-2.18-5-6.89-9.29-12.6-11.49-2.88-1.1-8.63-2.24-11.84-.57-1.02,.53-1.62,1.28-1.89,2.36-.24,.94-.11,1.8,.39,2.61,.93,1.51,3.1,2.84,5.54,3.4,1.21,.27,1.97,1.48,1.69,2.68-.27,1.21-1.48,1.97-2.68,1.69-2.83-.64-6.52-2.41-8.37-5.43-1.13-1.84-1.45-3.94-.91-6.05,.58-2.32,2.03-4.13,4.17-5.24,4.89-2.54,12.29-.87,15.51,.37,6.81,2.61,12.46,7.8,15.11,13.88,2.14,4.91,2.23,10.11,.25,15.03-3.82,9.48-14.4,14.25-24.59,14.25-2.98,0-5.93-.41-8.66-1.22-9.3-2.78-16.88-11.02-19.32-19.92-6.13,10.26-17.1,18.73-29.69,22.52-9.99,3-28.53,3.53-35.75-7.86-1.44-2.28-1.7-4.67-1.92-6.79-.16-1.49-.31-2.89-.85-4.03-.62-1.28-1.04-1.36-3.16-1.57-.44-.04-.9-.09-1.39-.15-6.69-.89-12.04-5.03-14.69-11.36-3.02-7.23-1.95-15.92,2.74-22.15,4.95-6.57,13.47-10.21,22.79-9.73,9.02,.46,16.84,4.79,20.93,11.58,.64,1.06,.3,2.44-.76,3.08-1.06,.64-2.44,.3-3.08-.76-3.32-5.51-9.79-9.03-17.31-9.41-7.72-.39-14.99,2.65-18.97,7.95-3.75,4.98-4.61,11.94-2.18,17.72,2.04,4.89,6,7.95,11.14,8.64,.43,.06,.85,.1,1.24,.14,2.36,.23,5.04,.5,6.76,4.1,.88,1.84,1.08,3.7,1.27,5.5,.2,1.86,.37,3.47,1.25,4.85,5.58,8.8,21.3,8.79,30.67,5.97,13.99-4.21,25.78-14.65,30.03-26.6,2.44-6.85,3.52-17.55-1.44-25.17-3.4-5.22-10.39-13.69-19.04-11.69,0,0,0,0,0,0-1.2,.28-2.41-.47-2.69-1.68-.14-.62-.01-1.24,.31-1.74,.16-2.15-1.13-10.45-1.53-11.88-5.05-16.75-23.6-25.14-39.28-27.39-17.83-2.56-36.94,5.41-48.66,20.3-1.48,1.88-2.84,3.87-4.05,5.92-3.89,6.63-6.05,13.85-6.25,20.9-.18,6.64,1.86,11.51,4.22,17.14,.49,1.17,.99,2.36,1.49,3.61,.27,.58,.5,1.18,.7,1.8,.37,1.16-.25,2.4-1.4,2.8-1.14,.4-2.41-.19-2.83-1.33-.19-.51-.39-1.02-.59-1.52-1.4-2.99-4.08-5.28-7.99-6.84-8.89-3.54-21.67-2.15-28.01,1.36-11.19,6.2-19.87,19.16-20.65,30.82-.3,4.53,1.37,6.94,3.69,10.29,.93,1.34,1.89,2.73,2.81,4.38,0,0,0,0,0,0,.6,1.08,.21,2.45-.88,3.05-.79,.44-1.73,.35-2.41-.15-1.77,.03-7.21,2.06-8.35,2.75-12.23,7.44-21.16,21.99-21.23,34.6-.05,8.84,4.13,16.14,12.1,21.12,7.3,4.56,15.94,6.99,24.33,6.85,3.63-.06,7.17-.83,10.91-1.63,5.05-1.09,10.27-2.21,15.77-1.49,8.31,1.09,16.05,4.28,23.53,7.36,7.1,2.92,14.44,5.94,22.09,7.04,4.51,.65,19.97,2.12,29.25-6.2,13.09-11.74,15.29-32.74,4.82-45.86-7-8.77-17.98-14.8-29.38-16.15-8.6-1.02-17.03,1.11-22.53,5.69-6.81,5.66-8.09,15.43-2.86,21.78,1.62,1.97,3.76,3.46,6.02,4.18,4.58,1.46,10,0,14.36-1.17,1.19-.32,2.43,.38,2.75,1.58,.32,1.2-.39,2.43-1.58,2.75-4.92,1.33-11.06,2.98-16.89,1.12-3.12-1-5.92-2.93-8.12-5.6-6.79-8.26-5.24-20.85,3.46-28.08,6.43-5.35,16.12-7.85,25.92-6.69,12.54,1.48,24.64,8.14,32.36,17.81,8.57,10.74,9.87,25.57,4.56,38.1,9.86-2.69,22.38,2.1,28.24,8.03,9.5,9.63,20.03,19.06,35.08,19.31,.14,0,.28,0,.42,0,10.43,0,18.94-6.5,27.17-12.78,.79-.61,1.58-1.21,2.37-1.81,5.55-4.19,17.54-10.61,27.31-8.09,4.38,1.13,7.72,4.03,9.66,8.37,.5,1.13,0,2.46-1.14,2.96-1.13,.51-2.46,0-2.96-1.14-1.4-3.14-3.58-5.06-6.68-5.86-4.21-1.09-9.77,.11-14.95,2.37,0,.17,0,.34-.03,.51-.51,2.71,5.63,7.22,10.02,8.94,5.03,1.97,11.36,2.58,17.82,1.75,8.64-1.12,18.14-5.79,19.63-15.45-.78-.31-1.56-.63-2.32-1-7.22-3.46-12.69-9.38-15-16.23-2-5.93-1.5-12.08,1.43-17.8,2.46-4.79,6.75-7.85,11.78-8.39,4.65-.5,9.17,1.19,11.82,4.41,.79,.96,.65,2.37-.31,3.16-.96,.79-2.37,.65-3.16-.31-1.68-2.04-4.77-3.14-7.87-2.8-2.05,.22-5.86,1.29-8.27,5.98-2.37,4.61-2.77,9.56-1.17,14.32,1.92,5.71,6.55,10.68,12.69,13.62,9.19,4.41,20.41,4.02,30.77-1.07,6.06-2.97,10.78-7.96,15.77-13.24,3.11-3.29,6.33-6.69,9.89-9.54,3.72-2.97,9.47-6.94,16.47-7.19,6.83-.26,12.06,3.28,17.12,6.68,4.81,3.23,9.35,6.29,14.92,5.85,1.43-.11,2.85-.46,4.32-.86Z"/>
</svg>