<svg width="213" height="31" viewBox="0 0 213 31" fill="none" xmlns="http://www.w3.org/2000/svg">
<path d="M205.996 19.4991C202.26 18.7489 199.215 17.0954 196.271 15.4979C194.318 14.4379 192.477 13.4376 190.445 12.6762C185.147 10.6868 180.223 9.94029 175.822 10.4516C172.967 10.7838 170.26 12.0379 167.036 14.5275C167.004 14.5536 166.962 14.5611 166.925 14.5835C166.698 15.3972 166.091 16.1474 165.194 16.6587C164.207 17.2223 162.978 17.4388 161.748 17.2634C160.244 17.0506 159.326 16.3265 159.4 15.4233C159.431 15.0052 159.933 14.6843 160.534 14.7066C161.125 14.7328 161.579 15.0911 161.548 15.5129C161.537 15.6174 161.864 15.7293 162.175 15.7704C162.935 15.8786 163.505 15.6696 163.843 15.4755C164.471 15.1172 164.867 14.52 164.877 13.9191C164.898 12.6725 164.16 11.7095 162.687 11.0638C160.334 10.0336 156.387 9.98508 153.706 10.9593C151.447 11.7767 149.59 13.1129 147.621 14.5275C146.186 15.5614 144.698 16.6326 143.025 17.4873C138.729 19.6895 134.154 20.8316 129.421 20.8839C124.006 20.9399 119.542 19.5962 114.824 18.1704C113.848 17.8755 112.861 17.5769 111.858 17.2895C107.468 16.0317 103.093 15.0426 98.8504 14.3483C89.9163 12.8889 80.9664 12.5232 72.2486 13.2622C67.1246 13.6951 61.9847 14.52 56.982 15.7069C51.3725 17.0357 45.7788 18.7153 40.3698 20.3389C37.6996 21.1414 34.9396 21.9663 32.2325 22.7389C29.2087 23.5974 26.1691 24.2804 23.1928 24.7694C19.4778 25.3778 15.921 25.6838 12.5542 25.6838C9.63073 25.6838 6.84443 25.4524 4.22172 24.9933C4.20589 24.9933 4.18478 24.9858 4.16895 24.9821C12.4381 27.3224 20.6282 28.0726 29.0399 27.2738C37.3724 26.4826 45.8052 24.7955 53.9583 23.1644C57.6786 22.4179 61.5256 21.649 65.3146 20.9735C88.3702 16.864 105.695 17.8456 118.281 23.9781C127.716 28.5727 137.933 32.7942 150.007 29.685C154.223 28.5989 157.785 26.7812 161.553 24.8589C164.202 23.5078 166.941 22.1081 169.912 21.0033C177.11 18.3271 186.054 18.0024 194.445 20.1113C195.025 20.2568 195.622 20.4136 196.223 20.5703C201.089 21.8506 206.118 23.1719 210.234 20.9511C211.115 20.4733 211.833 19.9545 212.456 19.3797C210.398 19.906 208.07 19.9172 206.002 19.5029L205.996 19.4991Z" fill="#E23B3B"/>
<path d="M22.0582 20.9361C16.227 22.0074 10.3906 22.5411 4.69661 22.5411C3.11876 22.5411 1.55146 22.4963 0 22.4142C1.61479 22.8509 3.18736 23.2391 4.73882 23.5115C10.0529 24.4447 16.0951 24.3663 22.7073 23.2801C25.578 22.8098 28.5121 22.1492 31.4303 21.3206C34.1216 20.5554 36.871 19.7306 39.5307 18.9318C44.9766 17.297 50.6073 15.6062 56.3012 14.2588C61.4464 13.0383 66.7235 12.1947 71.9953 11.7468C80.9611 10.9854 90.1643 11.3624 99.3412 12.8628C103.689 13.5757 108.175 14.5872 112.671 15.8749C113.69 16.1661 114.682 16.4684 115.674 16.767C120.175 18.1293 124.45 19.4133 129.389 19.3573C132.18 19.3275 134.919 18.8646 137.574 17.995C137.632 17.9651 137.69 17.9352 137.758 17.9128C141.611 16.5505 143.648 11.9372 143.305 9.48122C143.057 7.71577 142.407 6.17426 141.378 4.89029C138.782 1.66171 133.273 -0.331421 127.996 0.045558C123.257 0.38148 119.03 3.43463 118.766 6.71173C118.613 8.5929 119.415 10.3807 120.914 11.5005C122.17 12.4373 123.885 12.9151 126.017 12.9151C126.154 12.9151 126.291 12.9337 126.413 12.9711C128.344 12.5456 130.017 11.773 130.582 10.601C130.998 9.74249 130.582 8.48465 129.658 7.79415C129.326 7.54407 128.233 7.24921 127.405 7.35372C126.93 7.41344 126.835 7.57393 126.793 7.64485C126.56 8.03303 125.927 8.21218 125.384 8.04796C124.835 7.88373 124.581 7.43583 124.814 7.05138C125.194 6.41313 125.98 5.99137 127.025 5.857C128.465 5.67411 130.307 6.06602 131.22 6.75279C132.682 7.8464 133.283 9.71637 132.613 11.0974C131.046 14.3446 124.523 15.2367 120.608 14.8112C117.473 14.4753 114.666 13.4488 111.953 12.456C110.861 12.0566 109.827 11.6796 108.777 11.3437C103.663 9.72009 99.6736 8.66381 95.8372 7.92478C85.5469 5.94658 75.341 5.65918 64.6232 7.05138C56.5176 8.10394 49.6891 11.0041 42.4542 14.0759C36.0953 16.7745 29.52 19.5663 22.0582 20.9361Z" fill="#E23B3B"/>
</svg>
