<?xml version="1.0" encoding="UTF-8"?>
<svg id="Graphic_elements" data-name="Graphic elements" xmlns="http://www.w3.org/2000/svg" viewBox="0 0 480.91 480.91">
  <defs>
    <style>
      .cls-1 {
        fill: #e23b3b;
      }
    </style>
  </defs>
  <path class="cls-1" d="M454.62,212.34c1.52-6.2,.74-13.45-2.13-19.91-8.79-19.79-26.95-21.68-47.98-23.87-12.29-1.28-25.01-2.6-36.22-7.91-9.32-4.42-17.73-11.64-25.86-18.63-13.93-11.98-27.08-23.28-43.98-21.04-6.83,.91-12.61,3.84-18.73,6.95-3.8,1.93-7.73,3.93-12.06,5.5-16.29,5.94-34.74,5.47-58.07-1.49l-4.03-1.22c-10.06-3.06-19.57-5.94-29.6-6.03-.14,0-.28,0-.42,0-13.98,0-27.62,5.95-37.48,16.37-6.89,7.28-12.9,13.21-22.26,17.74-5.77,2.79-11.93,3.86-17.89,4.89-3.51,.61-6.83,1.18-9.96,2.08-10.6,3.04-20.4,13.02-25.58,26.03-1.79,4.5-2.91,9.02-3.35,13.35,.69,1.35,.56,2.92-.22,4.12,0,5.72,1.25,10.96,3.76,15.2,6.14,10.39,12.18,19.42,23.79,24.61,4.57,2.04,11.03,3.03,17.88,4.08,10.25,1.57,20.85,3.19,27.79,8.78,14.54,11.7,28.28,22.75,47.4,24.34,12.36,1.03,24.67-3.96,36.55-8.78,5.21-2.12,10.6-4.3,15.97-5.97,15.43-4.81,46.62-1.72,60.48,2.43,17.93,5.38,41.7,4.87,49.71-14.23,6.38-15.2,.1-35.14-14.3-45.41-3.96-2.82-8.39-5.03-13.08-7.36-7.33-3.64-14.91-7.41-20.88-13.84-1.96-2.12-3.75-4.36-5.48-6.53-3.12-3.93-6.07-7.63-9.83-10.36-11.23-8.14-27.44-10.59-44.48-6.72-5.44,1.23-9.74,4.45-14.3,7.84-6.76,5.05-14.42,10.78-26.16,9.09-7.66-1.1-14.98-3.97-22.05-6.74-1.56-.61-3.11-1.22-4.65-1.8-4.72-1.79-11.41-.7-17.02,2.78-4.79,2.97-7.77,7.05-8.18,11.21-.43,4.36,1.68,9.23,5.79,13.36,1.47,1.48,3.48,2.47,5.6,3.53,3.89,1.93,8.73,4.33,10.92,10.51,1.42,4,1.37,7.91,1.32,11.7-.04,3.02-.07,5.88,.69,8.42,1.47,4.91,4.63,9.27,8.91,12.27,8.05,5.66,16.83,8.7,25.39,8.82,8.71,.19,16.88-3.09,23.48-9.28,.66-.62,1.32-1.25,1.97-1.88,5.21-5.03,11.12-10.73,20.71-10.18,3.41,.19,9.35-.04,10.35-3.78,1.27-4.72-3.9-13.92-11.76-17.91-9.97-5.07-27.89-7.49-36.52,2.98-.88,1.06-1.27,2.39-.99,3.31,.45,1.45,5.12,1.96,7.11,2.17l.73,.08c2.27,.26,3.9,2.31,3.64,4.57-.26,2.27-2.31,3.89-4.57,3.64l-.69-.08c-4.21-.46-12.04-1.31-14.11-7.93-1.12-3.58-.16-7.8,2.5-11.03,10.86-13.19,32.14-12.47,46.65-5.1,9.73,4.95,18.7,17.43,16,27.44-1.08,4.03-4.99,10.66-18.8,9.88-5.74-.31-9.23,2.78-14.51,7.87-.68,.65-1.36,1.31-2.06,1.96-8.2,7.68-18.28,11.7-29.25,11.51-10.22-.14-20.61-3.71-30.03-10.32-5.79-4.06-10.08-9.98-12.08-16.67-1.12-3.75-1.08-7.38-1.03-10.89,.04-3.2,.08-6.22-.85-8.83-1.02-2.88-3.14-4.05-6.8-5.86-2.51-1.24-5.35-2.65-7.79-5.1-5.86-5.89-8.83-13.18-8.15-20.01,.67-6.74,5.06-13.09,12.05-17.42,7.83-4.86,17.15-6.2,24.3-3.49,1.57,.59,3.15,1.21,4.74,1.84,6.63,2.6,13.5,5.29,20.21,6.26,8.36,1.2,13.77-2.85,20.04-7.53,4.81-3.59,10.26-7.66,17.41-9.28,19.36-4.39,38.01-1.44,51.16,8.1,4.68,3.39,8.12,7.72,11.45,11.91,1.71,2.14,3.32,4.17,5.07,6.05,4.94,5.32,11.53,8.6,18.5,12.06,4.77,2.37,9.7,4.82,14.2,8.03,17.42,12.42,24.94,36.72,17.12,55.34-6.33,15.1-25.78,29.12-59.71,18.95-13.04-3.91-42.15-6.66-55.64-2.46-5.04,1.57-10.03,3.6-15.32,5.74-12.78,5.18-25.97,10.54-40.34,9.36-21.65-1.8-37.03-14.17-51.91-26.14-5.21-4.19-14.69-5.64-23.86-7.05-7.41-1.13-14.41-2.21-20-4.7-13.82-6.17-20.92-16.74-27.54-27.95-2.43-4.11-3.95-8.88-4.57-14.03-24.85,17.18-27.19,41.41-24.47,59.36,2.57,16.98,14.02,33.39,29.88,42.83,14.65,8.72,30.41,7.26,47.11,5.71l3.62-.33c9.85-.88,20.03-1.66,30.31-1.66,9.51,0,19.11,.67,28.62,2.56,15.48,3.07,28.5,11.4,41.09,19.45,1.96,1.26,3.92,2.51,5.89,3.74,19.01,11.9,35.02,16,50.38,12.9,10.67-2.16,17.33-8.22,25.04-15.24,2.37-2.16,4.82-4.38,7.47-6.58,12.17-10.06,23.02-16.05,34.14-18.87,12.89-3.27,27.86-4.32,43.28-3.06,2.16,.18,4.28,.4,6.37,.62,10.61,1.11,19.78,2.08,29.15-3.82,3.76-2.37,6.56-5.11,8.33-8.14,3.56-6.11,4.34-15.78,2.2-27.22l-.63-3.3c-2.57-13.28-5-25.82,8.22-37.43,3.48-3.05,7.57-5.42,11.52-7.72,7.69-4.47,14.34-8.32,16.25-16.12Z"/>
</svg>