<?xml version="1.0" encoding="UTF-8"?>
<svg id="Graphic_elements" data-name="Graphic elements" xmlns="http://www.w3.org/2000/svg" viewBox="0 0 480.91 480.91">
  <defs>
    <style>
      .cls-1 {
        fill: #e23b3b;
      }
    </style>
  </defs>
  <path class="cls-1" d="M444.02,270.74c-.82-.02-1.64,.03-2.49,.11-6.29,.55-12.26,2.72-18.57,5-5.76,2.09-11.73,4.25-18.07,5.14-16.7,2.35-32.1-2.7-42.22-13.83-8.56-9.42-13.45-21.23-18.19-32.65-1.02-2.47-2.03-4.92-3.08-7.32-4.29-9.88-10.47-22.37-20.29-31.35-8.16-7.46-18.55-13.73-30.06-18.12-20.85-7.96-46.89-8.89-57.47,12.38-3.82,7.67-4.32,17.15-1.35,25.36,1.75,4.83,5.48,11.32,13.32,14.77,7.81,3.44,17.81,1.98,24.3-3.56,3.76-3.2,5.22-8.48,3.72-13.46-1.43-4.74-5.11-7.94-9.87-8.59-.82,.03-2.92,.38-4.4,.77-.07,.19-.16,.37-.27,.55-1,1.68-3.17,2.22-4.86,1.22-2.26-1.35-2.48-3.5-1.99-4.92,1.56-4.54,12.15-4.68,12.23-4.65,7.59,.93,13.7,6.14,15.94,13.59,2.3,7.66-.01,15.85-5.9,20.88-8.62,7.35-21.38,9.22-31.74,4.66-7.9-3.48-13.98-10.17-17.12-18.84-3.61-9.99-2.99-21.55,1.67-30.92,5.85-11.77,16.24-19.01,30.04-20.94,.62-.09,1.27-.12,1.91-.19-4.72-6.67-10.44-8.96-19.54-10.81-6.93-1.41-13.74,.39-20.95,2.29-5.45,1.44-11.1,2.93-17.02,3.05-11.26,.24-22.71-2.24-32.85-4.42-11.64-2.5-20.86-3.07-29.02-1.8-13.14,2.05-23.86,11.38-30.42,18.63,15.11-1.16,30.32,1.42,39.7,10.95l1.01,1.03c6.79,6.91,12.66,12.89,21.98,15.05,3.87,.9,7.84,.85,12.04,.79,5.5-.08,11.19-.15,17.02,1.96,17.42,6.31,29.12,23.62,29.11,43.06,0,16.07-10.47,30.49-25.45,35.06-9.86,3.01-18.78,.04-27.39-2.83-7.05-2.35-13.71-4.57-20.64-3.51-3.72,.57-7.27,1.48-10.71,2.36-9.25,2.37-18.82,4.82-30.16-.11-10.67-4.64-18.09-13.65-19.36-23.51-1.72-13.31,8.73-25.17,19.94-30.01,8.2-3.54,17.31-3.92,24.35-.99,5.42,2.25,9.43,6.34,11.61,11.85,.72,1.82-.17,3.87-1.99,4.59-1.81,.72-3.87-.17-4.59-1.99-1.48-3.73-4.08-6.4-7.74-7.91-5.23-2.17-12.45-1.81-18.84,.95-8.78,3.79-16.99,12.77-15.73,22.61,1.14,8.86,8.58,15.07,15.16,17.93,9.11,3.96,16.75,2.01,25.59-.25,3.61-.92,7.34-1.88,11.4-2.5,8.61-1.32,16.42,1.28,23.95,3.79,7.91,2.64,15.38,5.12,23.09,2.77,11.84-3.61,20.43-15.51,20.44-28.29,0-16.47-9.82-31.11-24.45-36.41-4.61-1.67-9.41-1.6-14.52-1.54-4.43,.06-9.03,.12-13.74-.97-11.32-2.63-18.17-9.6-25.42-16.99l-1.01-1.02c-14.37-14.58-47.21-9.25-64.89-1.06-16.06,7.44-24.16,24.86-29.43,39.19-8.11,22.08-4.46,48.82,9.5,69.79,6.84,10.27,15.75,18.52,25.77,23.87,6.92,3.69,14.61,5.82,22.86,6.33,3.17,.19,6.43-.03,9.87-.28,5.14-.36,10.45-.74,15.77,.35,6.05,1.23,11.37,4.04,16.52,6.76,4.06,2.14,7.89,4.16,11.97,5.42,9.85,3.03,19.99,4.2,30.16,3.51,13.78-.95,26.67-4.84,37.28-11.24,9.21-5.56,15.94-13.83,23.06-22.58,5.78-7.1,11.75-14.45,19.21-20.27,10.37-8.1,24.25-11.64,37.13-9.5,10.86,1.81,18.05,8.68,25.02,15.32,2.1,2,4.27,4.07,6.48,5.93,10.95,9.21,24.36,14.17,37.74,13.93,11.73-.2,22.33-4.8,32.43-14.05,2.96-2.71,5.84-6,8.89-9.49,6.86-7.84,14.44-16.51,24.62-19.86Zm-130.05-7.51c-.67,1.84-2.72,2.77-4.55,2.09-20.11-7.43-43.32-.83-62.09,17.66l-.46,.45c-15.08,14.86-33.44,32.95-56.52,32.95-2.86,0-5.79-.28-8.8-.87-4.82-.95-9.36-2.75-13.75-4.49-5.72-2.26-11.12-4.4-16.76-4.61-1.95-.07-3.48-1.71-3.41-3.67,.07-1.95,1.7-3.45,3.67-3.41,6.85,.25,13.08,2.72,19.1,5.1,4.28,1.69,8.33,3.3,12.52,4.13,23.59,4.68,42.4-13.84,58.98-30.17l.46-.45c20.77-20.46,46.75-27.66,69.51-19.26,1.83,.68,2.77,2.71,2.09,4.55Z"/>
</svg>