<?xml version="1.0" encoding="UTF-8"?>
<svg id="Graphic_elements" data-name="Graphic elements" xmlns="http://www.w3.org/2000/svg" viewBox="0 0 480.91 480.91">
  <defs>
    <style>
      .cls-1 {
        fill: #e23b3b;
      }
    </style>
  </defs>
  <path class="cls-1" d="M403.62,251.5c-7.08-2.01-12.85-6.44-18.43-10.72-3.7-2.84-7.19-5.52-11.04-7.56-10.04-5.33-19.37-7.33-27.71-5.96-5.41,.89-10.54,4.25-16.65,10.92-.06,.07-.14,.09-.21,.15-.43,2.18-1.58,4.19-3.28,5.56-1.87,1.51-4.2,2.09-6.53,1.62-2.85-.57-4.59-2.51-4.45-4.93,.06-1.12,1.01-1.98,2.15-1.92,1.12,.07,1.98,1.03,1.92,2.16-.02,.28,.6,.58,1.19,.69,1.44,.29,2.52-.27,3.16-.79,1.19-.96,1.94-2.56,1.96-4.17,.04-3.34-1.36-5.92-4.15-7.65-4.46-2.76-11.94-2.89-17.02-.28-4.28,2.19-7.8,5.77-11.53,9.56-2.72,2.77-5.54,5.64-8.71,7.93-8.14,5.9-16.81,8.96-25.78,9.1-10.26,.15-18.72-3.45-27.66-7.27-1.85-.79-3.72-1.59-5.62-2.36-8.32-3.37-16.61-6.02-24.65-7.88-16.93-3.91-33.89-4.89-50.41-2.91-9.71,1.16-19.45,3.37-28.93,6.55-10.63,3.56-21.23,8.06-31.48,12.41-5.06,2.15-10.29,4.36-15.42,6.43-5.73,2.3-11.49,4.13-17.13,5.44-7.04,1.63-13.78,2.45-20.16,2.45-5.54,0-10.82-.62-15.79-1.85-.03,0-.07-.02-.1-.03,15.67,6.27,31.19,8.28,47.13,6.14,15.79-2.12,31.77-6.64,47.22-11.01,7.05-2,14.34-4.06,21.52-5.87,43.69-11.01,76.52-8.38,100.37,8.05,17.88,12.31,37.24,23.62,60.12,15.29,7.99-2.91,14.74-7.78,21.88-12.93,5.02-3.62,10.21-7.37,15.84-10.33,13.64-7.17,30.59-8.04,46.49-2.39,1.1,.39,2.23,.81,3.37,1.23,9.22,3.43,18.75,6.97,26.55,1.02,1.67-1.28,3.03-2.67,4.21-4.21-3.9,1.41-8.31,1.44-12.23,.33Z"/>
  <path class="cls-1" d="M55.06,255.35c-11.05,2.87-22.11,4.3-32.9,4.3-2.99,0-5.96-.12-8.9-.34,3.06,1.17,6.04,2.21,8.98,2.94,10.07,2.5,21.52,2.29,34.05-.62,5.44-1.26,11-3.03,16.53-5.25,5.1-2.05,10.31-4.26,15.35-6.4,10.32-4.38,20.99-8.91,31.78-12.52,9.75-3.27,19.75-5.53,29.74-6.73,16.99-2.04,34.43-1.03,51.82,2.99,8.24,1.91,16.74,4.62,25.26,8.07,1.93,.78,3.81,1.59,5.69,2.39,8.53,3.65,16.63,7.09,25.99,6.94,5.29-.08,10.48-1.32,15.51-3.65,.11-.08,.22-.16,.35-.22,7.3-3.65,11.16-16.01,10.51-22.59-.47-4.73-1.7-8.86-3.65-12.3-4.92-8.65-15.36-13.99-25.36-12.98-8.98,.9-16.99,9.08-17.49,17.86-.29,5.04,1.23,9.83,4.07,12.83,2.38,2.51,5.63,3.79,9.67,3.79,.26,0,.52,.05,.75,.15,3.66-1.14,6.83-3.21,7.9-6.35,.79-2.3,0-5.67-1.75-7.52-.63-.67-2.7-1.46-4.27-1.18-.9,.16-1.08,.59-1.16,.78-.44,1.04-1.64,1.52-2.67,1.08-1.04-.44-1.52-1.64-1.08-2.67,.72-1.71,2.21-2.84,4.19-3.2,2.73-.49,6.22,.56,7.95,2.4,2.77,2.93,3.91,7.94,2.64,11.64-2.97,8.7-15.33,11.09-22.75,9.95-5.94-.9-11.26-3.65-16.4-6.31-2.07-1.07-4.03-2.08-6.02-2.98-9.69-4.35-17.25-7.18-24.52-9.16-19.5-5.3-38.84-6.07-59.15-2.34-15.36,2.82-28.3,10.59-42.01,18.82-12.05,7.23-24.51,14.71-38.65,18.38Z"/>
</svg>