<?xml version="1.0" encoding="UTF-8"?>
<svg id="Graphic_elements" data-name="Graphic elements" xmlns="http://www.w3.org/2000/svg" viewBox="0 0 480.91 480.91">
  <defs>
    <style>
      .cls-1 {
        fill: #e23b3b;
      }
    </style>
  </defs>
  <path class="cls-1" d="M445.41,239.22c4.31-1.78,9-1.33,13.57-.8-1.6-.64-3.15-1.36-4.66-2.07-.66-.31-1.33-.62-2-.92-5.9-2.68-11.7-4.91-17.66-2.85-6.99,2.42-13.15,8.2-17.75,12.97-.17,.17-.3,.38-.44,.58-.27,.39-.61,.88-1.09,1.31-8.63,7.91-25.87,16.35-37.94,7.22-3.92-2.97-6.74-7.03-9.07-10.6-7.04-10.8-15.38-20.23-28.54-16.1-.31,.1-.63,.25-1.01,.43-.43,.21-.86,.41-1.33,.57-.19,.07-.43,.16-.7,.27-1.68,.67-2.96,1.13-4.05,.97-.74-.11-1.36-.59-1.64-1.28-.89-2.19,1.05-3.93,2.1-4.86,.17-.15,.32-.28,.43-.39,.64-.7,1.35-1.24,2.03-1.77,.79-.61,1.54-1.19,1.97-1.87,4.6-7.18,4.72-14.26,.33-20.48-6.75-9.58-23.06-15.22-35.63-12.31-6.11,1.41-13.76,5.38-15.51,16.25l-1.29,7.99c-.18,1.14-1.24,1.92-2.39,1.74-1.14-.18-1.92-1.24-1.75-2.38,1.01-6.84,2.16-14.6-.14-21.43-1.47-4.34-4.46-8.65-9.15-13.16-16.86-16.21-42.39-22.9-65.03-17.04-10.65,2.75-19.36,8.42-27.43,17.84-5.19,6.06-11.45,14.23-13.72,23.74-3.3,13.81,2.45,29.46,14.31,38.95,11.1,8.88,26.77,12.18,41.91,8.83,4.31-.95,8.21-2.39,11.61-4.23,1.9-1.63,4.01-3.13,6.35-4.45,.47-.43,.95-.86,1.38-1.32,9.65-10.11,8.24-26.2,1.39-35.32-6.05-8.05-15.01-9.81-24.58-4.82-2.98,1.55-6.48,4.88-7.1,8.51-.32,1.9,.21,3.57,1.64,5.1,.79,.85,.74,2.17-.1,2.96-.85,.79-2.17,.74-2.96-.1-2.32-2.49-3.26-5.48-2.71-8.67,.87-5.07,5.3-9.44,9.3-11.52,11.41-5.94,22.57-3.69,29.87,6.02,6.8,9.06,8.89,24.13,2.13,35.61,6.5-2.01,14.2-2.76,23.14-1.62,9.25,1.19,21.59,6.7,25.92,18.33,4.65,12.48-2.87,25.56-12.32,31.53-6.23,3.94-14.99,4.86-21.3,2.26-4.81-1.99-7.97-5.73-9.13-10.81-1.81-7.91,2.89-16.06,10.26-17.79,4.06-.95,7.88-.37,10.2,1.56,1.24,1.03,2.68,2.95,2.54,6.27-.09,2.06-1.28,4.1-3.09,5.32-1.67,1.13-3.63,1.42-5.37,.8-1.09-.39-1.67-1.58-1.28-2.67,.38-1.09,1.58-1.66,2.67-1.28,.68,.24,1.37-.15,1.63-.33,.72-.49,1.21-1.28,1.25-2.03,.06-1.3-.28-2.24-1.02-2.86-1.28-1.06-3.86-1.34-6.57-.7-5.7,1.34-8.29,7.68-7.13,12.77,.86,3.76,3.09,6.41,6.65,7.87,5.13,2.12,12.32,1.33,17.46-1.93,8.05-5.09,14.51-16.12,10.63-26.52-3.68-9.88-14.44-14.6-22.53-15.63-11.86-1.52-21.29,.55-28.45,4.49-1.85,1.63-3.96,3.07-6.25,4.36-4.09,3.57-7.03,7.82-8.85,12.1-5.63,13.28-2.19,31.5,7.18,44.36,.18,.06,.36,.14,.53,.25,.56,.38,.87,.98,.91,1.61,2.3,2.85,4.91,5.38,7.79,7.48,12.48,9.06,33.04,11.17,45.85,4.69,8.97-4.54,16.44-12.8,21.22-23.41-2.31-.71-4.39-1.7-6.2-2.97-4.47-3.14-7.27-8.13-7.28-13.03,0-1.16,.93-2.1,2.09-2.1h0c1.15,0,2.09,.93,2.1,2.09,.01,3.56,2.12,7.24,5.5,9.61,2.98,2.09,7,3.29,11.63,3.47,9.94,.39,19.15-3.8,29.03-13.17,.84-.8,2.17-.76,2.96,.08,.8,.84,.76,2.17-.08,2.96-10.17,9.64-20.23,14.34-30.72,14.34-.45,0-.9,0-1.36-.03-1.15-.04-2.26-.16-3.34-.31-1.52,6.92,5.48,13.64,10.17,16.67,7.71,4.99,18.39,5.83,27.87,2.18,8.75-3.37,16.34-11.14,21.39-21.89-3.19-3.59-4.51-8.41-4.02-12.57,.64-5.37,4.51-11.18,13.47-11.39,1.09-.02,4.93,.14,7.91,3.33,2.45,2.62,3.46,6.38,3.02,11.16-.11,1.15-1.15,2-2.28,1.89-1.15-.11-2-1.13-1.89-2.28,.33-3.54-.31-6.2-1.91-7.91-1.42-1.52-3.41-2.02-4.75-2-7.68,.17-9.13,5.43-9.4,7.69-.59,4.98,2.51,11.12,8.72,12.77,8.09,2.15,20.95-.71,26.48-8.25,1.3-1.77,1.08-3.18,.75-5.32-.27-1.73-.57-3.69,.02-5.98,1.45-5.61,6.52-5.33,9.54-5.17,.99,.06,1.9,.05,2.96,.12,.74,.04,1.59,.09,2.05-.04,4.17-1.24,5.21-5.27,6.32-11.28,.29-1.58,.57-3.06,.95-4.47,1.77-6.38,6.08-11.02,12.81-13.8Z"/>
  <path class="cls-1" d="M223.56,258.19c.95-2.25,2.19-4.49,3.69-6.65-1.36,.42-2.75,.8-4.2,1.12-16.38,3.62-33.36,0-45.44-9.66-6.61-5.29-11.49-12.33-14.24-19.98-10.59,.2-19.94,3.1-26.41,8.27-8.24,6.58-15.65,19.43-13.87,31.27,.82,5.47,3.77,10.58,8.1,14.03,6.15,4.9,17.97,6.25,25.8,2.95,4.89-2.06,7.61-5.53,8.1-10.33,.64-6.26-3.85-10.52-8.29-11.82-3.84-1.13-8.92-.38-11.69,5.08-.52,1.03-1.79,1.45-2.82,.92-1.03-.52-1.45-1.79-.92-2.82,3.24-6.39,9.75-9.22,16.61-7.21,6.05,1.77,12.16,7.62,11.28,16.26-.63,6.26-4.42,11.15-10.65,13.77-3.42,1.44-7.43,2.13-11.48,2.13-6.9,0-13.95-1.99-18.56-5.67-5.15-4.1-8.66-10.18-9.63-16.69-.36-2.4-.38-4.83-.14-7.25-8.5-6-20.84-5.81-29.38,.48-3.62,2.66-6.17,6.43-8.87,10.42-3.43,5.07-6.98,10.31-12.96,13.31-2.92,1.47-6.16,1.82-9.23,2.07-5.06,.4-8.3-1.05-11.74-2.57-1.33-.59-2.71-1.2-4.27-1.74-.59-.2-1.16-.43-1.73-.66-1.34-.54-2.5-1-3.78-1.04-2.33-.07-4.11,.12-5.92,.65-.14,.04-.27,.08-.41,.12,5.88,2.09,8.83,8.63,10.48,12.29,3.94,8.75,8.21,14.27,17.37,14.79,8.36,.47,14.83-3.74,21.66-8.2,3.66-2.39,7.44-4.86,11.6-6.63,1.12-.48,2.22-.84,3.31-1.15,.28-.26,.63-.45,1.03-.53,1.62-.31,3.19-.45,4.71-.45,9.45-.5,18.1,4.2,26.53,8.8,6.48,3.53,13.17,7.19,19.95,8.18,10.45,1.53,20.73-1.21,27.5-7.33,.86-.78,2.18-.71,2.96,.15,.78,.86,.71,2.19-.15,2.96-6.31,5.7-15.22,8.83-24.66,8.83-2.07,0-4.16-.15-6.26-.46-7.46-1.09-14.44-4.87-21.18-8.55,1.34,1.29,2.61,2.57,3.81,3.78,1.89,1.9,3.67,3.7,5.29,5.1,.94,.81,1.84,1.6,2.72,2.37,7.04,6.18,12.13,10.65,21.47,12.35,5.99,1.09,12.65,.41,18.26-1.89,5.82-2.38,9.12-6.26,12.95-10.75,.67-.79,1.36-1.6,2.08-2.42,0,0,0,0,0,0,.76-.87,2.09-.96,2.96-.2,.58,.51,.81,1.26,.68,1.96,.75,1.03,3.36,3.19,6,4.94,10.73,7.1,22.5,.85,29.5-8.36-10.24-14.01-13.8-33.59-7.53-48.37Z"/>
</svg>