<?xml version="1.0" encoding="UTF-8"?>
<svg id="Graphic_elements" data-name="Graphic elements" xmlns="http://www.w3.org/2000/svg" viewBox="0 0 480.91 480.91">
  <defs>
    <style>
      .cls-1 {
        fill: #e23b3b;
      }
    </style>
  </defs>
  <path class="cls-1" d="M285.76,252.58c3.06-4.82,6.08-9.9,9-14.82,11.36-19.11,23.1-38.86,41.4-51.31,13-8.84,30.57-12.21,43.73-8.39,9.14,2.66,15.67,8.4,19.43,17.09,2.6,6.02,2.74,12,.39,17.31-1.08,2.45-2.69,4.65-4.69,6.55,2.12-7.62-3.41-15.66-10.31-19.88-11.05-6.76-25.72-6.06-36.51,1.75-6.25,4.52-12.93,14.32-13.29,22.88-.17,4.08,1.09,7.63,3.65,10.38-5,1.17-9.41,3.82-13.48,6.62-23.73,16.33-42.66,39.7-59.37,60.32-18.6,22.96-42.6,40.48-67.57,49.31-4.23,1.5-8.56,2.71-12.96,3.65,7.21-2.54,14.24-5.91,21-10.12,35.75-22.24,60.06-60.56,79.59-91.35Z"/>
  <path class="cls-1" d="M88.37,322.03c-1.62-2.01-3.23-4.08-4.86-6.16-6.7-8.57-13.62-17.44-22.37-24.24-13.29-10.32-30.47-11.73-47.5-4.36,7.92-6.97,18.9-12.63,30.24-12.4,9.49,.17,20.31,3.6,29.68,9.41,7.71,4.78,13.08,11.49,18.77,18.61,3.35,4.19,6.81,8.52,10.81,12.44,7.39,7.26,15.24,12.37,23.34,15.18,7.98,2.78,15.91,4.16,23.77,4.16,17.53,0,34.68-6.9,51.24-20.65,24.39-20.25,39.8-49.12,46.81-64.53,1.33-2.92,2.64-5.84,3.96-8.76,2.14-4.74,4.28-9.48,6.46-14.2,6.3-13.64,14.02-29.54,23.43-44.06,.36-.56,.88-1.11,1.43-1.69,.6-.64,1.29-1.37,1.87-2.24,6.54-9.68,14.83-15.54,24.43-22.33l.34-.24c10-7.07,19.89-13.51,31.04-14.59,9.36-.91,18.37,1.14,27.93,3.3,6.26,1.42,12.72,2.88,19.24,3.42,4.97,.41,8.93-1.48,12.73-3.3,2.59-1.24,5.04-2.42,7.7-2.8,5.14-.74,10.5-.69,15.94,.15,11.93,1.84,21.78,7.14,27.73,14.91,6.55,8.55,6.32,18.2,6.08,28.41-.14,5.97-.28,12.15,.95,18.3,.73,3.63,2.35,6.74,3.91,9.75,1.63,3.14,3.18,6.11,3.59,9.43,.7,5.68-.59,12.25-3.54,18.04-4.46,8.75-13.25,15.4-22.93,17.36-5.13,1.03-10.32,.18-15.81-.72-4.29-.71-8.73-1.43-13.22-1.22-6.77,.33-11.09,3.94-15.26,7.43-2.68,2.24-5.22,4.36-8.38,5.63-6.15,2.47-15.24,1.86-24.33-1.63-5.89-2.26-6.11-5.91-6.47-11.96-.09-1.45-.17-2.95-.36-4.52-1.08-9.04-5.79-12.91-11.24-17.39-.89-.73-1.82-1.49-2.76-2.31-2.27-1.95-3.3-4.48-3.17-7.72,.29-6.82,6.1-15.46,11.35-19.26,9.26-6.71,21.84-7.33,31.29-1.55,4.67,2.86,10.25,9.51,8.01,15.33-1.84,4.79-8.18,7.67-13.31,6.05-1.25-.39-2.56,.29-2.96,1.53-.39,1.24,.29,2.56,1.53,2.96,3.14,1,6.55,.83,9.64-.21,.58,.37,1.32,.49,2.02,.25,7.87-2.72,13.85-7.93,16.83-14.68,2.85-6.45,2.71-13.94-.38-21.08-4.28-9.9-12.04-16.72-22.44-19.75-14.43-4.19-33.6-.57-47.69,9.02-19.16,13.03-31.18,33.25-42.8,52.8-2.9,4.88-5.9,9.93-8.93,14.7-19.27,30.38-43.26,68.19-78.1,89.87-19.67,12.24-41.63,17.15-63.69,14.33-2.71-.56-5.41-1.22-8.08-1.98-16.55-4.75-31.2-14.92-43.54-30.24Z"/>
  <path class="cls-1" d="M162.51,185.56c3-1.24,6.1-2.53,9.57-6.24,2.32-2.47,3.44-5.17,4.52-7.78,2.08-5.01,3.87-9.33,14.8-11.26,18.64-3.28,36.66,12.4,41.19,28.51,1.61,5.74,5.42,9.88,9.1,13.88,2.86,3.11,5.57,6.05,7.29,9.68,4.14,8.74,4.02,15.17-.46,23.76-.31,.59-.34,1.25-.14,1.84-.13,.29-.26,.58-.4,.87-1.32,2.92-2.63,5.83-3.96,8.74-6.85,15.04-21.87,43.2-45.54,62.86-22.62,18.78-46.33,24.05-70.45,15.66-7.44-2.59-14.7-7.33-21.59-14.1-3.8-3.73-7.17-7.95-10.43-12.02-5.69-7.11-11.57-14.46-19.97-19.67-8.91-5.52-19.09-9.03-28.46-9.9,9.25-2.83,18.79-3.35,28.08-1.59,.17,.09,.34,.16,.53,.21,17.97,4.31,23.85,10.79,35.57,23.68,2.75,3.03,5.86,6.46,9.5,10.25,10.29,10.74,21.32,16.1,33.72,16.38,.34,0,.69,.01,1.03,.01,11.28,0,22.39-4.22,31.39-11.94,17.26-14.81,26.8-40.26,24.3-64.82-.02-.19-.06-.36-.12-.53,4.28-4.01,7.26-9.54,7.92-15.08,.66-5.61-1.01-10.63-4.85-14.52-6.01-6.09-17.99-7.92-26.7-4.07-6.27,2.77-9.66,8.11-9.32,14.67,.07,1.3,1.14,2.29,2.48,2.23,1.3-.07,2.29-1.18,2.23-2.48-.31-5.84,3.38-8.72,6.52-10.11,6.83-3.02,16.85-1.58,21.44,3.07,3.54,3.58,3.87,7.77,3.53,10.66-.66,5.6-4.48,11.46-9.5,14.58-3.17,1.97-6.33,1.93-9.98,1.88-3.05-.04-6.19-.08-9.54,1.07-2.89,1-5.23,2.3-7.49,3.56-3.86,2.15-7.17,4.01-12.41,3.6-6.03-.48-13.51-4.05-16.14-9.95-1.42-3.18-.23-6.62,1.02-10.25,1.39-4.03,2.97-8.61,.41-12.88-4.04-6.74-5.19-15.03-2.68-19.3,5.74-9.72,9.76-11.39,14.02-13.15Z"/>
  <path class="cls-1" d="M192.78,247.57c.82-.01,1.64-.01,2.48,0,3.66,.04,7.77,.07,11.91-2.25,1.5,22.06-7.49,45.31-22.84,58.48-8.39,7.2-18.77,11.03-29.25,10.8-11.08-.25-21.04-5.14-30.43-14.93-.04-.04-.08-.08-.12-.13,7.4,5.38,15.63,9.41,25.97,9.41,.61,0,1.23-.01,1.86-.04,12.5-.57,23.64-6.53,31.37-16.77,9.2-12.18,12.67-29.25,9.06-44.54,0-.01,0-.02-.01-.03Z"/>
</svg>