<?xml version="1.0" encoding="UTF-8"?>
<svg id="Calque_2" data-name="Calque 2" xmlns="http://www.w3.org/2000/svg" viewBox="0 0 377.83 409.12">
  <defs>
    <style>
      .cls-1 {
        fill: #0c0c0c;
      }

      .cls-2 {
        fill: #bf1818;
      }

      .cls-3 {
        fill: #eb5d11;
      }
    </style>
  </defs>
  <g id="Calque_1-2" data-name="Calque 1">
    <path class="cls-3" d="M377.83,227.18c-53.83,35-143.21,103.05-167.22,181.94h-38.27C147.51,327.52,53.07,257.7,0,223.87l19.22-35.24c17.09,10.8,38.51,25.33,60.96,42.93,51.16,40.13,88.42,80.9,111.29,121.69,22.87-40.79,60.13-81.56,111.3-121.69,20.26-15.88,39.67-29.26,55.82-39.66l19.24,35.28Z"/>
    <path class="cls-1" d="M377.83,203.75c-53.83,35-143.21,103.05-167.22,181.94h-38.27C147.51,304.09,53.07,234.27,0,200.44l19.22-35.24c17.09,10.8,38.51,25.33,60.96,42.93,51.16,40.13,88.42,80.9,111.29,121.69,22.87-40.79,60.13-81.56,111.3-121.69,20.26-15.88,39.67-29.26,55.82-39.66l19.24,35.28Z"/>
    <path class="cls-2" d="M169.61,221.83c0,24.21-9.84-9.79-34.05-9.79s-43.84-19.63-43.84-43.84,19.63,2.04,43.84,2.04,34.05,27.38,34.05,51.59Z"/>
    <path class="cls-2" d="M216.24,221.83c0,24.21,9.84-9.79,34.05-9.79s43.84-19.63,43.84-43.84c0-24.21-19.63,2.04-43.84,2.04s-34.05,27.38-34.05,51.59Z"/>
    <path class="cls-1" d="M322.43,0c-8.76,3.3-14.82,6.98-19.03,12.17-16.11,19.87-32.26,39.78-46.94,60.7-3.88,5.53-5.2,15.58-3.14,22.12,3.66,11.66,7.24,23.35,10.75,35.04,17.3-12.57,34.85-24.96,52.7-36.91C314.17,62.81,316.21,31.69,322.43,0Z"/>
    <path class="cls-1" d="M53.3,0c8.76,3.3,14.82,6.98,19.03,12.17,16.11,19.87,32.26,39.78,46.94,60.7,3.88,5.53,5.2,15.58,3.14,22.12-3.66,11.66-7.24,23.35-10.75,35.04-17.3-12.57-34.85-24.96-52.7-36.91,2.6-30.31,.56-61.43-5.66-93.12Z"/>
  </g>
</svg>