<?xml version="1.0" encoding="UTF-8"?>
<svg id="Graphic_elements" data-name="Graphic elements" xmlns="http://www.w3.org/2000/svg" viewBox="0 0 480.91 480.91">
  <defs>
    <style>
      .cls-1 {
        fill: #e23b3b;
      }
    </style>
  </defs>
  <path class="cls-1" d="M438.01,385.66c-11.65-3.54-21.2-10.24-26.21-18.37-3.96-6.42-5.55-13.7-7.08-20.73-.8-3.67-1.56-7.15-2.63-10.46-5.04-15.63-13.06-24.89-25.26-29.16-11.9-4.17-26.44-4.13-39.87,.11-6.4,2.02-12.7,4.99-18.78,7.87-15.58,7.36-31.69,14.98-51.06,7.6-19.99-7.62-32.58-27.56-30.63-48.5,1.15-12.34,8.74-28.43,26.21-33.93,7.78-5.55,19.23-7.39,26.71-1,3.4,2.91,5.42,7.21,5.4,11.51,0,1.67-1.36,3.01-3.02,3.01h-.01c-1.67,0-3.02-1.37-3.01-3.04,0-2.55-1.22-5.12-3.28-6.89-5.1-4.36-13.24-2.51-18.53,.84-.35,.44-.83,.78-1.4,.98-.28,.22-.56,.43-.82,.66-2.97,2.57-4.53,6-4.64,10.19-.16,6.08,2.97,13.29,7.79,17.95,8.61,8.32,22.22,10.85,33.13,6.16,3.15-1.36,5.58-3.5,6.2-5.46,.43-1.37,.23-3.14,.01-5.02-.19-1.65-.39-3.36-.21-5.13,.75-7.77,6.4-11.31,11.39-14.43,1.16-.72,2.34-1.46,3.49-2.27,2.88-2.02,4.78-4.75,5.65-8.12,1.74-6.78-1.1-14.55-6.74-18.47-1.09-.76-2.37-1.38-3.71-2.04-2.15-1.05-4.38-2.14-6.34-3.98-2.02-1.91-3.44-4.58-4.09-7.71-.37-1.76-.44-3.44-.51-5.06-.07-1.54-.13-2.99-.44-4.33-.94-4.06-2.57-7.08-5.12-9.49-3.43-3.25-8.4-5.29-13.98-5.75-4.72-.38-8.96,1.19-13.44,2.85-3.9,1.45-7.92,2.95-12.49,3.24-7.9,.52-12.43-3.73-16.43-7.47-2.81-2.63-5.47-5.11-9.16-5.89-2.62-.55-5.71-.29-8.9,.76-3.93,1.29-7.83,3.37-10.98,5.86-6.68,5.26-8.95,12.17-6.07,18.47,1.41,3.08,4.53,5.56,8.36,6.64,3.87,1.09,7.78,.56,10.72-1.43,2.43-1.64,2.45-4.41,1.66-6.46-.6-1.56,.17-3.31,1.72-3.91,1.55-.6,3.31,.17,3.92,1.72,2.03,5.22,.46,10.71-3.91,13.66-4.42,2.99-10.16,3.81-15.74,2.24-5.51-1.55-10.08-5.26-12.22-9.94-4.06-8.87-1.06-18.73,7.82-25.74,3.69-2.91,8.25-5.34,12.84-6.85,4.21-1.39,8.37-1.71,12.04-.94,5.34,1.12,8.91,4.45,12.05,7.39,3.71,3.46,6.66,6.19,11.91,5.86,3.69-.24,7.13-1.52,10.78-2.88,2.69-1,5.43-2,8.36-2.64-.34-.67-.44-1.45-.21-2.22,4.21-14.2-3.75-31.5-18.14-39.39-6.89-3.78-13.39-5.63-21.9-7.32-1.57,5.72-5.58,11.97-14.23,17.69-11.86,7.84-28.1,9.75-41.37,4.85-7.49-2.76-12.81-9.34-13.55-16.75-.67-6.71,2.57-12.97,8.67-16.73,4.84-2.98,12.42-3.98,18.04-2.35,3.77,1.09,6.55,3.27,8.04,6.3,.74,1.5,.12,3.31-1.38,4.05-1.49,.74-3.31,.12-4.05-1.38-.72-1.48-2.17-2.53-4.29-3.15-4.46-1.29-10.21-.15-13.19,1.69-4.15,2.56-6.27,6.56-5.83,10.98,.51,5.12,4.29,9.71,9.62,11.67,11.35,4.19,25.79,2.49,35.93-4.22,10.67-7.06,14.55-15.91,11.22-25.6-5.57-16.24-28.92-30.22-48.06-28.76-19.35,1.48-36.87,12.15-43.61,26.55-.34,.73-.64,1.87-.97,3.08-1.01,3.8-2.9,10.87-10,9.45-11.17-2.23-23.01,2.25-31.72,11.98-6.88,7.68-10.25,17.21-8.67,24.15,5.16-.99,10.51-1.25,15.74-.61,8.81,1.07,15.46,5.99,18.72,13.84,3.58,8.62,2.26,19.21-3.29,26.33-3.65,4.68-8.66,7.31-14.43,7.73,2.09,7.9,11.61,12.37,19.86,15.4,26.8,9.87,59.13,25.96,71.47,62.99,.53,1.59-.33,3.3-1.91,3.83-.32,.11-.64,.16-.95,.16-1.27,0-2.45-.8-2.87-2.07-8.99-26.99-29.91-45.26-67.82-59.23-10.26-3.78-22.19-9.64-23.99-21.46-7.01-1.47-12.69-7.12-13.68-13.79-1-6.77,2.57-12.45,8.88-14.13,1.6-.43,3.27,.53,3.7,2.14,.43,1.61-.53,3.27-2.14,3.7-4.95,1.32-4.66,6-4.46,7.4,.65,4.35,4.77,8.17,9.6,8.89,7.33,1.09,11.65-2.27,13.99-5.27,4.19-5.37,5.21-13.72,2.48-20.29-1.69-4.07-5.47-9.14-13.87-10.16-10.62-1.29-21.86,1.39-30.05,7.17-5.91,4.17-7.47,9.57-9.27,15.81-1.44,4.99-2.93,10.16-6.82,14.87-1.21,1.48-2.47,2.95-3.73,4.44-7.02,8.31-14.29,16.89-17.14,26.71-3.1,10.65,1.63,20.29,15.35,31.23,.66,.53,1.08,1.31,1.13,2.16,.05,.85-.25,1.68-.83,2.29l-.39,.41c-6.22,6.5-13.27,13.86-9.36,23.01,3.06,7.15,6.69,10.85,16.77,19.06,4.34,3.54,6.13,8.81,7.87,13.91,1.46,4.3,2.84,8.36,5.59,11.09,10.1,10,23.61,8.7,33.16,5.85,7.85-2.35,18.1-8.81,21.63-16.17,1.51-3.15,1.67-6.11,.48-9.05-2.68-6.61-13.21-8.69-20.47-6.07-3.49,1.26-7.29,3.92-5.55,9.39,.51,1.59-.37,3.29-1.97,3.8-1.6,.5-3.29-.38-3.8-1.97-2.11-6.65,.44-12.49,6.67-15.77-.05-.56,.04-1.13,.31-1.67,6.33-12.33,17.05-17.69,34.96-17.3,15.26,.31,31.01,8.73,43.22,23.1,.62,.73,15.19,18.07,11.73,29.89-.83,2.82-3.06,6.57-9.02,8.39-.3,.09-.59,.13-.89,.13-1.29,0-2.49-.84-2.89-2.14-.49-1.6,.41-3.29,2.01-3.78,3.67-1.12,4.6-2.99,4.99-4.3,.93-3.16-.38-7.63-2.54-12.07-.22-.16-.42-.33-.59-.55-4.22-5.28-15.62-4.04-19.65-1.17-6.21,4.4-7.33,10.18-3.34,17.16,.63,1.1,1.32,2.17,2.01,3.25,1.58,2.46,3.2,5,4.25,7.9,.97,2.7,.83,5.41,.69,8.04-.21,3.91-.39,7.3,2.82,10.87,5.1,5.69,8.9,4.95,13.32,4.1,3.34-.64,7.12-1.38,10.87,1.11,2.83,1.87,4.82,4.37,6.75,6.78,3.84,4.8,6.1,7.25,11.77,5.97,7.43-1.68,7.91-7.84,7.8-17.06-.01-1.01-.03-2-.02-2.95,.13-16.03,15.39-26.22,30.39-28.01,7.92-.94,15.52,.14,21.96,3.14,4.39,2.04,8.04,5,11.57,7.86,3.98,3.22,7.74,6.27,12.31,7.89,9.38,3.33,14.86-2.74,22.14-12.36,2.29-3.02,4.45-5.88,6.86-8.18,10.02-9.59,23.44-14.65,35.91-13.51,18.2,1.65,26.06,16.12,33,28.89,1.89,3.48,3.67,6.76,5.61,9.74,7.3,11.19,23.4,18.52,41.65,18.1-2.01-.4-4.02-.87-6.01-1.48Zm-161.33-50.73c-.08,0-.17,0-.25,0-25.28-2.05-47.1-15.45-58.37-35.85-13.19-23.88-10.36-52.77,7.03-71.91,1.13-1.24,3.04-1.32,4.27-.2,1.24,1.12,1.33,3.04,.2,4.27-15.65,17.22-18.15,43.31-6.21,64.92,10.28,18.62,30.31,30.87,53.57,32.75,1.66,.13,2.9,1.59,2.77,3.26-.13,1.58-1.45,2.78-3.01,2.78Z"/>
</svg>